<svg width="393" height="376" xmlns="http://www.w3.org/2000/svg" xmlns:xlink="http://www.w3.org/1999/xlink" fill-rule="evenodd" clip-rule="evenodd" stroke-linecap="round" stroke-linejoin="round" stroke-miterlimit="1.5">
  <g id="Cell">
    <path id="Body-back" d="M181.98 25.5c30.6-3.18 59.54 6 90.32 19.07 48.75 20.7 89.36 67.04 93.83 121.14 5.1 61.82-33.61 136.88-82.16 173.87-29.75 22.68-55.85 29.4-92.25 34.18C110.98 384.4 22.43 311.05 5.66 233.98c-6.93-31.82 6.74-63.43 17.46-92.4 9.57-25.85 19.97-53.77 38.34-75.14 27.69-32.24 85.38-37.3 120.52-40.94z" fill="#fff" stroke="#917690" stroke-width="1.8"/>
    <path id="Nucleus" d="M123.9 200.54c7.67-19.08 28.96-43.4 57.53-46.33 37.46-3.86 62.57 14.86 75.02 49.63 5.72 16 9.06 35.52 2.66 52.02-1.95 5.02-12.77 22.03-15.96 25.42-24.25 25.77-54.65 25.05-79.96 11-46.89-26.06-46.19-74.63-39.3-91.74z" fill="url(#_Radial1)"/>
    <path id="Endosome" d="M113.13 120.71c3.65 5.06 6.37 14.96 2.34 23.97-5.28 11.8-14.56 13.09-25.55 12.08-5.06-.46-10.62-1.88-13.8-5.25a33.15 33.15 0 01-3.86-6.64c-2.58-8.62 2.68-20.03 10.55-25.6 14.6-10.32 27.05-3.1 30.32 1.44z" fill="#dcb2bb"/>
    <path d="M113.13 120.71c3.65 5.06 6.37 14.96 2.34 23.97-5.28 11.8-14.56 13.09-25.55 12.08-5.06-.46-10.62-1.88-13.8-5.25a33.15 33.15 0 01-3.86-6.64c-2.58-8.62 2.68-20.03 10.55-25.6 14.6-10.32 27.05-3.1 30.32 1.44zm-.81.59c3.5 4.84 6.1 14.34 2.24 22.97-5.06 11.32-14 12.46-24.55 11.5-4.81-.44-10.14-1.74-13.15-4.95-.9-.97-3.32-5.17-3.64-6.23-2.47-8.27 2.63-19.17 10.17-24.5 13.93-9.85 25.8-3.13 28.93 1.2z" fill="#917690"/>
    <path id="Lysosme" d="M170.53 72.88c2.64-5.66 9.96-12.86 19.78-13.73 12.89-1.14 21.53 4.4 25.8 14.7 1.97 4.74 3.12 10.53.92 15.41-.67 1.5-4.39 6.53-5.49 7.53-8.34 7.63-18.8 7.42-27.5 3.26-16.12-7.72-15.88-22.1-13.51-27.17z" fill="#dcb2bb"/>
    <path d="M170.53 72.88c2.64-5.66 9.96-12.86 19.78-13.73 12.89-1.14 21.53 4.4 25.8 14.7 1.97 4.74 3.12 10.53.92 15.41-.67 1.5-4.39 6.53-5.49 7.53-8.34 7.63-18.8 7.42-27.5 3.26-16.12-7.72-15.88-22.1-13.51-27.17zm.9.42c2.53-5.42 9.56-12.32 18.97-13.15 12.37-1.1 20.68 4.2 24.8 14.09 1.86 4.5 3.01 9.98.92 14.61-.64 1.43-4.2 6.25-5.25 7.2-8 7.33-18.04 7.1-26.4 3.1-15.38-7.36-15.3-21.02-13.04-25.85z" fill="#917690"/>
    <g id="Body" opacity=".8">
      <path id="Body-fill" d="M182.04 28.98c30-3.1 58.35 5.9 88.51 18.7 47.78 20.28 87.58 65.7 91.96 118.7 5 60.6-32.94 134.15-80.51 170.4-29.16 22.23-54.74 28.8-90.41 33.5C112.47 380.7 25.69 308.82 9.25 233.3c-6.8-31.18 6.6-62.16 17.11-90.55 9.38-25.34 19.58-52.7 37.57-73.64 27.14-31.6 83.68-36.55 118.11-40.13z" fill="#ff8b8f"/>
      <path d="M182.04 28.98c30-3.1 58.35 5.9 88.51 18.7 47.78 20.28 87.58 65.7 91.96 118.7 5 60.6-32.94 134.15-80.51 170.4-29.16 22.23-54.74 28.8-90.41 33.5C112.47 380.7 25.69 308.82 9.25 233.3c-6.8-31.18 6.6-62.16 17.11-90.55 9.38-25.34 19.58-52.7 37.57-73.64 27.14-31.6 83.68-36.55 118.11-40.13zm.19 1.8c29.7-3.09 57.76 5.88 87.62 18.56 47.18 20.02 86.54 64.84 90.86 117.2 4.95 60.03-32.67 132.9-79.8 168.82-28.88 22-54.23 28.49-89.56 33.14-39.1 5.15-80.08-10.1-113.33-35.9-33.3-25.85-58.88-62.3-67.01-99.68-6.72-30.85 6.65-61.47 17.04-89.54 9.3-25.15 19.39-52.31 37.24-73.1 10.66-12.4 25.95-20.59 42.6-26.2 25.32-8.56 53.79-11.17 74.34-13.3z" fill="#917690"/>
      <use id="cell_texture" xlink:href="#_Image2" x="535" y="491" width="395" height="378" transform="translate(-536 -492)"/>
      <path id="Edge-Shadow" d="M182.04 28.98c30-3.1 58.35 5.9 88.51 18.7 47.78 20.28 87.58 65.7 91.96 118.7 5 60.6-32.94 134.15-80.51 170.4-29.16 22.23-54.74 28.8-90.41 33.5C112.47 380.7 25.69 308.82 9.25 233.3c-6.8-31.18 6.6-62.16 17.11-90.55 9.38-25.34 19.58-52.7 37.57-73.64 27.14-31.6 83.68-36.55 118.11-40.13z" fill="url(#_Radial3)"/>
      <path id="Highlights" d="M182.04 28.98c30-3.1 58.35 5.9 88.51 18.7 47.78 20.28 87.58 65.7 91.96 118.7 5 60.6-32.94 134.15-80.51 170.4-29.16 22.23-54.74 28.8-90.41 33.5C112.47 380.7 25.69 308.82 9.25 233.3c-6.8-31.18 6.6-62.16 17.11-90.55 9.38-25.34 19.58-52.7 37.57-73.64 27.14-31.6 83.68-36.55 118.11-40.13z" fill="url(#_Radial4)"/>
    </g>
  </g>
  <defs>
    <radialGradient id="_Radial1" cx="0" cy="0" r="1" gradientUnits="userSpaceOnUse" gradientTransform="matrix(71.0614 0 0 74.1275 191.53 227.84)">
      <stop offset="0" stop-color="#00749e"/>
      <stop offset=".66" stop-color="#00749e" stop-opacity=".86"/>
      <stop offset=".84" stop-color="#00749e" stop-opacity=".47"/>
      <stop offset="1" stop-color="#00749e" stop-opacity="0"/>
    </radialGradient>
    <radialGradient id="_Radial3" cx="0" cy="0" r="1" gradientUnits="userSpaceOnUse" gradientTransform="scale(188.434) rotate(65.5 -.33 1.3)">
      <stop offset="0" stop-color="#735373" stop-opacity="0"/>
      <stop offset=".47" stop-color="#735373" stop-opacity="0"/>
      <stop offset=".88" stop-color="#735373" stop-opacity="0"/>
      <stop offset="1" stop-color="#735373"/>
    </radialGradient>
    <radialGradient id="_Radial4" cx="0" cy="0" r="1" gradientUnits="userSpaceOnUse" gradientTransform="rotate(62.94 -35.98 201.05) scale(241.588)">
      <stop offset="0" stop-color="#fff" stop-opacity=".4"/>
      <stop offset=".13" stop-color="#fff" stop-opacity=".29"/>
      <stop offset=".29" stop-color="#fff" stop-opacity="0"/>
      <stop offset=".46" stop-color="#735373" stop-opacity="0"/>
      <stop offset=".85" stop-color="#735373" stop-opacity=".6"/>
      <stop offset="1" stop-color="#735373" stop-opacity=".3"/>
    </radialGradient>
  </defs>
</svg>
