<?xml version="1.0" encoding="UTF-8" standalone="no"?><!DOCTYPE svg PUBLIC "-//W3C//DTD SVG 1.1//EN" "http://www.w3.org/Graphics/SVG/1.1/DTD/svg11.dtd"><svg width="24px" height="19px" version="1.1" xmlns="http://www.w3.org/2000/svg" xmlns:xlink="http://www.w3.org/1999/xlink" xml:space="preserve" xmlns:serif="http://www.serif.com/" style="fill-rule:evenodd;clip-rule:evenodd;stroke-linejoin:round;stroke-miterlimit:2;"><g id="Antibody"><path d="M6.838,3.765C6.786,2.366 8.504,0.855 9.824,1.841C10.724,2.514 10.786,3.419 11.529,4.205C12.53,5.265 12.771,4.908 13.246,3.765C14.418,0.943 14.727,1.231 15.671,1.352C15.962,1.389 18.071,1.637 19.058,2.334C20.011,3.008 23.681,3.715 23.703,5.153C23.757,8.633 22.237,9.658 20.797,9.481C20.172,9.405 19.607,9.033 18.981,8.966C18.71,8.937 17.577,9.479 17.287,9.372C16.747,9.172 16.45,8.47 15.884,8.362C15.452,8.279 15.102,8.823 14.664,8.868C14.531,8.882 13.086,8.271 12.927,8.339C12.427,8.555 12.788,9.566 12.711,9.843C12.653,10.049 11.918,10.61 12.014,10.916C12.139,11.316 13.049,11.311 13.246,11.577C13.526,11.955 13.501,12.503 13.778,12.883C14.513,13.894 15.167,13.505 15.671,14.751C16.352,16.434 13.599,16.474 12.933,16.934C12.227,17.42 12.18,18.989 11.024,18.906C10.159,18.844 9.264,18.474 8.853,17.637C8.264,16.439 9.019,16.158 8.133,15.18C7.497,14.479 6.545,13.125 7.323,11.577C7.947,10.337 7.223,10.768 8.159,9.918C8.792,9.344 8.404,8.992 8.882,8.347C9.188,7.933 10.031,7.746 10.09,7.093C10.134,6.616 9.325,6.413 9.048,6.547C8.393,6.864 8.161,7.767 7.323,7.841C6.751,7.891 6.205,7.506 5.631,7.517C4.202,7.542 2.172,8.627 0.911,7.288C0.49,6.84 0.694,4.172 0.911,3.765C1.596,2.484 2.273,3.446 3.518,2.599C3.907,2.335 4.39,2.213 4.856,2.152C6.044,1.997 5.716,3.766 6.838,3.765Z" style="fill:#2d50ff;"/><path d="M17.713,1.128C18.583,0.486 21.162,-0.949 21.393,0.936C21.803,0.834 22.322,0.835 22.699,1.038C24.179,1.834 23.256,3.579 23.357,3.824C23.462,4.077 20.108,5.406 19.838,3.2C17.889,4.419 17.57,6.715 14.433,6.636C14.162,6.629 13.901,6.778 13.629,6.771C11.483,6.716 11.896,3.931 13.958,3.49C13.903,2.757 14.53,2.33 15.301,2.02C16.185,1.664 17.259,1.462 17.713,1.128ZM4.652,0.936C6.157,0.14 10.566,0.416 10.395,2.218C10.224,4.014 7.668,5.568 6.782,3.824C6.326,4.333 5.326,3.916 4.652,3.824C3.76,5.988 0,4.37 0.83,2.23C0.925,1.983 1.086,1.759 1.273,1.572C1.461,1.385 1.694,1.245 1.932,1.128C2.234,0.978 4.324,0.891 4.652,0.936Z" style="fill:#5a92ff;"/></g></svg>