<?xml version="1.0" encoding="UTF-8" standalone="no"?><!DOCTYPE svg PUBLIC "-//W3C//DTD SVG 1.1//EN" "http://www.w3.org/Graphics/SVG/1.1/DTD/svg11.dtd"><svg width="294px" height="264px" version="1.1" xmlns="http://www.w3.org/2000/svg" xmlns:xlink="http://www.w3.org/1999/xlink" xml:space="preserve" xmlns:serif="http://www.serif.com/" style="fill-rule:evenodd;clip-rule:evenodd;stroke-linecap:round;stroke-miterlimit:1.8;"><g id="B-Cell" serif:id="B Cell"><path id="Body-back" serif:id="Body back" d="M10.576,77.321C33.626,41.891 78.488,-26.69 186.048,15.066C265.145,45.771 308.661,107.533 287.276,160.385C265.891,213.237 240.83,250.391 166.996,259.421C93.161,268.451 80.817,252.771 47.748,227.644C14.68,202.517 -12.474,112.75 10.576,77.321Z" style="fill:#fff;stroke:#c67272;stroke-width:1px;"/><path id="nucleus" d="M227.78,193.824C214.688,215.541 189.209,257.578 129.11,231.296C84.914,211.968 60.815,173.683 73.057,141.22C85.299,108.757 99.527,85.987 140.963,80.799C182.399,75.61 189.244,85.337 207.662,100.991C226.08,116.646 240.872,172.107 227.78,193.824Z" style="fill:url(#_Radial1);"/><g id="Body" opacity="0.8"><path id="Body-fill" serif:id="Body fill" d="M13.312,78.414C35.901,43.693 79.865,-23.516 185.274,17.405C262.789,47.496 305.435,108.022 284.478,159.817C263.52,211.612 238.961,248.023 166.603,256.872C94.245,265.722 82.147,250.355 49.74,225.731C17.333,201.106 -9.277,113.135 13.312,78.414Z" style="fill:#eaa647;"/><path d="M13.312,78.414C35.901,43.693 79.865,-23.516 185.274,17.405C262.789,47.496 305.435,108.022 284.478,159.817C263.52,211.612 238.961,248.023 166.603,256.872C94.245,265.722 82.147,250.355 49.74,225.731C17.333,201.106 -9.277,113.135 13.312,78.414ZM14.82,79.396C28.219,58.802 49.166,26.584 86.335,12.892C111.081,3.776 142.997,2.923 184.623,19.082C230.636,36.945 264.28,65.588 279.315,96.761C289.215,117.287 291.001,138.896 282.809,159.142C262.102,210.318 237.877,246.342 166.384,255.085C130.615,259.46 109.738,257.909 93.801,252.161C77.85,246.408 66.863,236.481 50.829,224.298C31.649,209.723 14.634,172.602 8.818,137.88C4.973,114.921 5.98,92.984 14.82,79.396Z" style="fill:#e18967;"/><path id="Edge-shadow" serif:id="Edge shadow" d="M13.312,78.414C35.901,43.693 79.865,-23.516 185.274,17.405C262.789,47.496 305.435,108.022 284.478,159.817C263.52,211.612 238.961,248.023 166.603,256.872C94.245,265.722 82.147,250.355 49.74,225.731C17.333,201.106 -9.277,113.135 13.312,78.414Z" style="fill:url(#_Radial2);"/><path id="Highlights" d="M13.312,78.414C35.901,43.693 79.865,-23.516 185.274,17.405C262.789,47.496 305.435,108.022 284.478,159.817C263.52,211.612 238.961,248.023 166.603,256.872C94.245,265.722 82.147,250.355 49.74,225.731C17.333,201.106 -9.277,113.135 13.312,78.414Z" style="fill:url(#_Radial3);"/></g></g><defs><radialGradient id="_Radial1" cx="0" cy="0" r="1" gradientUnits="userSpaceOnUse" gradientTransform="matrix(-81.4851,-0.741906,0.623396,-80.1173,151.365,159.428)"><stop offset="0" style="stop-color:#3e3eff;stop-opacity:1"/><stop offset="0.66" style="stop-color:#3e3eff;stop-opacity:0.86"/><stop offset="0.84" style="stop-color:#3e3eff;stop-opacity:0.47"/><stop offset="1" style="stop-color:#3e3eff;stop-opacity:0"/></radialGradient><radialGradient id="_Radial2" cx="0" cy="0" r="1" gradientUnits="userSpaceOnUse" gradientTransform="matrix(59.729,127.399,-127.399,59.729,147.35,131.999)"><stop offset="0" style="stop-color:#c67272;stop-opacity:0"/><stop offset="0.47" style="stop-color:#c67272;stop-opacity:0"/><stop offset="0.88" style="stop-color:#c67272;stop-opacity:0"/><stop offset="1" style="stop-color:#c67272;stop-opacity:1"/></radialGradient><radialGradient id="_Radial3" cx="0" cy="0" r="1" gradientUnits="userSpaceOnUse" gradientTransform="matrix(86.3525,156.293,-156.293,86.3525,126.719,88.7615)"><stop offset="0" style="stop-color:#fff;stop-opacity:0.4"/><stop offset="0.13" style="stop-color:#fff;stop-opacity:0.29"/><stop offset="0.29" style="stop-color:#fff;stop-opacity:0"/><stop offset="0.46" style="stop-color:#da6a41;stop-opacity:0"/><stop offset="0.85" style="stop-color:#da6a41;stop-opacity:1"/><stop offset="1" style="stop-color:#da6a41;stop-opacity:0.3"/></radialGradient></defs></svg>