<?xml version="1.0" encoding="UTF-8" standalone="no"?><!DOCTYPE svg PUBLIC "-//W3C//DTD SVG 1.1//EN" "http://www.w3.org/Graphics/SVG/1.1/DTD/svg11.dtd"><svg width="588px" height="627px" version="1.1" xmlns="http://www.w3.org/2000/svg" xmlns:xlink="http://www.w3.org/1999/xlink" xml:space="preserve" xmlns:serif="http://www.serif.com/" style="fill-rule:evenodd;clip-rule:evenodd;stroke-linecap:round;stroke-linejoin:round;stroke-miterlimit:1.5;"><g id="Macrophage"><path id="Nucleus" d="M208.253,215.707C224.897,184.567 269.453,145.644 327.566,142.726C403.765,138.899 453.663,171.682 476.961,230.275C487.673,257.215 493.369,289.865 479.45,316.822C475.214,325.025 452.315,352.523 445.656,357.929C395.011,399.046 333.376,395.774 282.835,370.703C189.172,324.241 193.316,243.654 208.253,215.707Z" style="fill:url(#_Radial1);"/><g id="Body" opacity="0.8"><g id="Back-arms" serif:id="Back arms"><path d="M172.473,136.718C179.314,129.933 169.681,113.213 157.231,101.021C147.554,91.544 157.381,90.099 172.473,101.021C191.419,114.732 184.111,121.552 190.65,127.181" style="fill:#5677b4;stroke:#005f7a;stroke-width:1px;"/><path d="M413.101,153.863C429.584,148.836 439.449,139.687 445.341,123.529C448.935,113.674 449.913,103.393 456.585,94.878C459.96,90.571 468.057,88.335 468.503,96.048C468.896,102.84 465.531,108.795 462.247,114.476C458.722,120.574 455.438,126.543 453.372,133.311C450.29,143.403 450.407,154.063 445.338,163.492" style="fill:#5677b4;stroke:#005f7a;stroke-width:1px;"/><path d="M246.719,466.755C231.556,474.944 223.697,485.864 221.118,502.869C219.545,513.24 220.62,523.51 215.764,533.177C213.308,538.067 205.814,541.861 203.85,534.388C202.121,527.808 204.241,521.305 206.337,515.087C208.586,508.412 210.624,501.911 211.31,494.868C212.334,484.366 210.111,473.94 213.214,463.695" style="fill:#5677b4;stroke:#005f7a;stroke-width:1px;"/><path d="M495.687,321.808C510.918,327.213 530.108,324.834 543.582,334.664C548.305,338.108 545.691,346.563 540.3,348.419C534.149,350.536 525.261,347.413 519.454,345.155C512.044,342.275 504.943,338.827 497.158,336.992" style="fill:#5677b4;stroke:#005f7a;stroke-width:1px;"/><path d="M455.533,401.095C467.111,403.978 478.242,404.264 490.101,404.3C492.791,404.308 501.519,402.977 503.697,405.04C508.649,409.728 504.686,420.937 498.317,421.909C487.262,423.595 475.474,416.865 465.408,413.202" style="fill:#5677b4;stroke:#005f7a;stroke-width:1px;"/><path d="M186.691,459.694C177.3,467.055 170.233,475.66 162.916,484.992C161.256,487.109 156.941,494.812 153.976,495.262C147.234,496.287 140.828,486.272 143.976,480.651C149.441,470.894 161.995,465.732 171.071,460.043" style="fill:#5677b4;stroke:#005f7a;stroke-width:1px;"/><path d="M287.226,496.928C300.861,503.498 307.847,516.62 308.074,531.377C308.191,538.964 306.129,546.798 308.377,554.225C310.518,561.303 321.994,567.616 322.828,557.889C323.383,551.403 316.567,545.323 314.453,539.57C312.545,534.379 314.316,529.629 316.317,524.729C321.005,513.254 324.564,503.544 323.754,490.891" style="fill:#5677b4;stroke:#005f7a;stroke-width:1px;"/><path d="M146.033,413.613C129.172,417.218 112.994,423.766 99.078,431.867C94.623,434.46 83.188,443.96 78.217,443.839C64.618,443.508 73.573,428.759 78.761,425.609C93.935,416.396 115.429,419.149 132.602,413.43" style="fill:#5677b4;stroke:#005f7a;stroke-width:1px;"/><path d="M116.656,350.394C96.393,348.571 78.214,350.9 58.574,355.434C54.587,356.355 41.343,361.28 37.871,357.847C28.299,348.381 51.458,339.619 58.574,337.717C74.365,333.498 88.875,337.937 104.897,337.717" style="fill:#5677b4;stroke:#005f7a;stroke-width:1px;"/><path d="M297.55,120.908C305.527,102.193 308.912,84.181 310.65,64.1C311.003,60.022 310.397,45.906 314.734,43.66C326.688,37.47 327.888,62.203 327.505,69.558C326.654,85.881 317.96,98.317 313.233,113.628" style="fill:#5677b4;stroke:#005f7a;stroke-width:1px;"/><path d="M101.463,211.773C97.996,199.274 89.179,190.882 78.953,185.598C74.764,183.434 63.261,181.57 62.113,175.93C61.104,170.973 65.001,164.847 69.333,163.252C74.092,161.499 81.683,166.772 85.233,169.589C89.594,173.05 93.717,176.832 98.27,180.008C106.215,185.552 114.966,190.534 124.45,192.388" style="fill:#5677b4;stroke:#005f7a;stroke-width:1px;"/><path d="M480.596,225.592C492.314,232.484 505.996,232.566 518.799,229.343C524.044,228.022 535.636,221.354 540.549,224.755C544.869,227.746 545.598,235.043 542.815,239.267C539.759,243.908 529.324,245.293 524.203,245.679C517.91,246.153 511.611,246.222 505.343,247.042C494.405,248.473 483.131,250.888 473.355,256.149" style="fill:#5677b4;stroke:#005f7a;stroke-width:1px;"/></g><path id="Body1" serif:id="Body" d="M500.08,520.105C501.885,518.394 497.99,510.548 494.781,507.169C489.322,501.421 473.03,494.084 467.327,485.616C461.737,477.315 455.903,462.818 460.564,456.363C465.224,449.909 483.689,445.218 495.289,446.888C506.89,448.558 521.057,462.53 530.169,466.383C536.346,468.995 547.971,471.346 549.961,470.006C551.951,468.666 545.702,461.349 542.106,458.343C535.488,452.81 520.045,441.675 510.252,436.811C501.902,432.664 486.695,434.127 483.35,429.16C480.004,424.193 486.406,413.751 490.179,407.007C494.355,399.544 498.74,383.746 508.404,384.38C522.658,385.316 562.588,409.197 575.708,412.623C580.147,413.782 587.571,407.949 587.125,404.933C586.68,401.917 578.332,396.984 573.035,394.527C562.253,389.526 531.934,383.604 522.436,374.93C514.295,367.495 515.099,352.08 516.046,342.478C516.959,333.221 525.188,323.015 528.116,317.317C529.726,314.185 530.177,309.062 533.614,308.294C541.352,306.565 565.67,308.215 574.544,306.941C579.109,306.285 586.725,303.177 586.864,300.646C587.003,298.116 580.164,292.49 575.379,291.759C564.995,290.172 535.282,292.973 524.56,291.124C518.948,290.157 511.456,284.794 511.048,280.669C510.64,276.543 518.425,271.136 522.113,266.369C526.571,260.608 530.06,249.723 537.797,246.101C545.935,242.291 565.509,245.88 570.944,243.509C574.501,241.957 574.089,233.103 570.406,231.877C566.278,230.504 553.515,234.865 546.179,235.268C539.583,235.63 532.817,235.803 526.386,234.295C518.284,232.395 503.679,230.741 497.565,223.868C491.45,216.995 492.417,200.282 489.7,193.059C487.927,188.347 482.299,184.276 481.262,180.531C480.356,177.258 480.663,172.485 483.48,170.588C489.938,166.238 512.156,159.725 520.012,154.433C525.226,150.922 529.963,143.09 530.619,138.84C531.226,134.905 527.825,128.036 523.946,128.933C518.52,130.187 504.19,142.238 498.064,146.364C494.439,148.805 490.814,151.247 487.19,153.688C482.625,156.762 474.504,165.533 470.675,164.811C466.846,164.088 468.544,152.881 464.215,149.353C459.455,145.473 448.958,145.304 442.113,141.534C435.084,137.661 428.082,129.841 422.04,126.119C417.047,123.042 407.086,123.413 405.864,119.199C404.641,114.985 414.427,105.673 414.703,100.836C414.948,96.558 411.762,89.549 407.523,90.174C402.612,90.897 392.301,103.538 385.243,105.179C378.514,106.743 367.802,103.924 365.171,100.018C362.54,96.111 365.808,86.825 369.456,81.74C373.667,75.87 384.222,68.986 390.435,64.802C395.475,61.407 405.054,59.535 406.733,56.634C408.412,53.733 404.199,46.971 400.51,47.394C395.197,48.004 382.793,54.947 374.853,60.294C366.738,65.76 356.699,75.348 351.816,80.189C349.192,82.791 348.225,90.225 345.558,89.338C342.891,88.452 337.19,79.987 335.813,74.869C334.435,69.75 335.585,63.788 337.294,58.627C339.503,51.959 348.057,40.24 349.063,34.861C349.692,31.501 346.502,25.517 343.333,26.354C340.164,27.19 333.62,34.666 330.05,39.881C326.46,45.123 323.51,51.951 321.795,57.807C320.172,63.35 323.938,72.967 319.762,75.016C315.586,77.065 300.12,75.291 296.739,70.101C293.358,64.912 298.15,50.786 299.477,43.881C300.489,38.618 303.607,33.921 304.701,28.674C306.025,22.326 308.344,10.232 307.423,5.79C306.808,2.83 300.233,-0.809 299.171,2.022C296.44,9.307 294.317,49.935 291.037,49.5C283.399,48.485 291.348,34.075 289.832,30.186C288.76,27.434 282.782,23.574 281.939,26.161C281.097,28.748 284.351,39.137 284.779,45.707C285.253,52.966 286.623,63.062 284.779,69.712C283.055,75.932 277.817,83.499 273.718,85.606C269.619,87.713 262.778,86.2 260.187,82.352C256.545,76.944 252.751,61.574 251.865,53.158C251.114,46.027 253.83,38.593 254.871,31.858C255.859,25.474 258.703,17.613 258.113,12.75C257.625,8.732 253.427,0.72 251.33,2.679C249.233,4.638 246.604,17.053 245.533,24.504C244.345,32.764 245.889,48.07 244.202,52.236C243.05,55.081 236.692,52.217 235.41,49.5C234.129,46.782 236.2,40.46 236.515,35.934C237.005,28.905 245.641,7.589 238.348,7.324C232.374,7.108 228.501,26.513 226.988,36.994C225.244,49.075 231.569,69.989 227.882,79.809C224.591,88.575 211.047,96.712 204.865,95.913C198.683,95.115 196.012,79.383 190.791,75.016C186.175,71.156 174.192,64.208 173.537,69.712C172.881,75.216 188.592,98.99 186.86,108.04C185.128,117.089 169.779,123.851 163.146,124.011C156.514,124.17 152.547,105.156 147.067,108.998C139.923,114.007 152.247,129.876 148.447,133.911C144.647,137.945 131.105,137.048 124.266,133.204C117.428,129.361 111.346,115.519 107.414,110.848C105.524,108.603 102.649,104.028 100.677,105.179C98.706,106.33 93.9,113.557 95.585,117.753C98.676,125.445 114.85,144.26 119.219,151.33C120.832,153.941 123.404,157.555 121.796,160.169C119.355,164.139 108.862,168.867 104.569,175.151C98.717,183.718 92.148,203.83 86.684,211.572C83.233,216.463 77.772,221.397 71.789,221.603C63.885,221.876 45.558,213.027 39.257,213.209C35.641,213.313 33.932,219.734 33.98,222.692C34.028,225.649 42.231,231.092 39.544,230.954C36.857,230.815 24.198,223.419 17.86,221.86C12.568,220.559 3.46,220.294 1.515,221.603C-0.429,222.913 3.57,228.022 6.191,229.719C10.972,232.816 22.146,236.817 30.201,240.185C40.453,244.472 62.291,247.41 67.7,255.441C73.109,263.472 62.808,277.665 62.653,288.37C62.501,298.891 70.555,314.554 66.771,319.668C62.986,324.782 47.012,318.826 39.947,319.054C34.718,319.222 24.187,316.946 24.378,321.032C24.729,328.533 30.569,329.488 35.216,331.212C42.026,333.74 58.021,331.658 65.24,336.197C72.46,340.735 81.948,353.636 78.532,358.444C75.115,363.252 54.373,363.031 44.741,365.045C36.71,366.724 26.227,367.834 20.744,370.526C16.587,372.567 11.689,378.768 11.844,381.194C11.998,383.621 18.149,385.129 21.671,385.084C28.904,384.989 46.811,381.86 55.238,380.63C60.926,379.799 67.573,377.261 72.232,377.7C76.311,378.085 82.193,381.78 83.192,383.264C84.192,384.749 80.033,385.754 78.23,386.606C72.262,389.43 55.443,394.78 47.384,400.207C40.249,405.013 31.928,414.722 29.878,419.171C28.578,421.992 32.065,427.632 35.085,426.901C39.424,425.851 48.971,417.549 55.914,412.873C63.973,407.445 77.281,395.097 83.436,394.337C89.011,393.648 91.738,402.807 92.849,408.313C94.202,415.015 95.55,426.759 91.552,434.549C86.116,445.139 57.117,470.134 60.233,471.852C73.234,479.022 84.5,458.694 91.241,455.896C94.157,454.685 97.659,454.136 100.677,455.064C107.751,457.238 129.416,463.767 133.682,468.941C137.646,473.748 128.281,481.277 126.274,486.104C124.651,490.005 120.275,495.876 121.639,497.901C123.003,499.927 130.913,500.644 134.458,498.256C138.902,495.263 142.643,483.528 148.304,479.942C153.966,476.357 163.722,474.304 168.428,476.741C174.048,479.651 151.477,520.72 148.578,532.128C147.487,536.421 146.606,545.415 151.03,545.189C159.647,544.748 165.071,527.943 174.757,517.91C179.803,512.683 184.291,477.601 187.175,476.852C195.732,474.629 216.65,495.738 217.121,497.266C219.068,503.575 225.285,512.607 225.531,519.184C225.784,525.942 222.202,552.175 222.615,564.518C222.94,574.256 222.307,595.641 228.009,593.245C242.458,587.174 232.705,540.025 236.571,522.526C238.755,512.641 245.151,512.346 247.166,512.962C256.61,515.848 258.122,510.945 263.601,510.398C269.058,509.854 277.919,504.623 280.038,509.681C283.095,516.974 279.64,540.918 281.939,554.161C284.046,566.293 290.443,577.369 293.832,589.137C297.209,600.866 299.078,620.031 302.269,624.768C304.672,628.336 311.916,621.728 312.973,617.558C314.214,612.663 311.694,602.595 309.711,595.396C307.217,586.342 300.755,574.307 298.009,563.234C294.896,550.686 291.6,529.673 291.037,520.105C290.748,515.206 290.758,508.436 294.63,505.828C298.503,503.22 309.227,500.998 314.272,504.456C319.318,507.914 322.544,518.744 324.906,526.576C328.128,537.263 329.122,556.985 333.607,568.578C337.58,578.845 347.438,597.494 351.816,596.132C356.865,594.561 354.42,589.967 354.276,586.731C354.013,580.809 353.05,568.952 350.238,560.599C346.793,550.365 334.386,534.527 333.607,525.33C332.954,517.615 340.198,509.408 345.567,505.418C350.936,501.427 361.19,496.292 365.82,501.386C372.294,508.507 377.468,534.647 384.41,548.148C390.702,560.385 402.084,574.39 407.47,582.388C410.556,586.969 413.813,594.765 416.727,596.132C419.641,597.499 425.126,593.805 424.955,590.59C424.783,587.376 417.282,581.845 415.698,576.846C414.114,571.848 417.353,565.67 415.449,560.599C412.667,553.188 404.004,542.051 399.005,532.38C393.762,522.237 384.309,507.547 383.994,499.745C383.735,493.311 390.858,485.137 397.117,485.568C403.375,485.998 413.796,496.207 421.546,502.327C431.498,510.188 446.967,546.054 456.829,532.73C460.166,528.221 442.904,512.055 438.276,505.183C435.203,500.62 429.827,496.611 429.057,491.495C428.288,486.379 428.848,474.408 433.658,474.484C438.468,474.561 450.338,485.484 457.915,491.956C466.297,499.114 476.924,512.745 483.951,517.437C488.483,520.463 498.275,521.817 500.08,520.105Z" style="fill:#5677b4;stroke:#005f7a;stroke-width:1.2px;"/><path id="Body-gradient" serif:id="Body gradient" d="M500.08,520.105C501.885,518.394 497.99,510.548 494.781,507.169C489.322,501.421 473.03,494.084 467.327,485.616C461.737,477.315 455.903,462.818 460.564,456.363C465.224,449.909 483.689,445.218 495.289,446.888C506.89,448.558 521.057,462.53 530.169,466.383C536.346,468.995 547.971,471.346 549.961,470.006C551.951,468.666 545.702,461.349 542.106,458.343C535.488,452.81 520.045,441.675 510.252,436.811C501.902,432.664 486.695,434.127 483.35,429.16C480.004,424.193 486.406,413.751 490.179,407.007C494.355,399.544 498.74,383.746 508.404,384.38C522.658,385.316 562.588,409.197 575.708,412.623C580.147,413.782 587.571,407.949 587.125,404.933C586.68,401.917 578.332,396.984 573.035,394.527C562.253,389.526 531.934,383.604 522.436,374.93C514.295,367.495 515.099,352.08 516.046,342.478C516.959,333.221 525.188,323.015 528.116,317.317C529.726,314.185 530.177,309.062 533.614,308.294C541.352,306.565 565.67,308.215 574.544,306.941C579.109,306.285 586.725,303.177 586.864,300.646C587.003,298.116 580.164,292.49 575.379,291.759C564.995,290.172 535.282,292.973 524.56,291.124C518.948,290.157 511.456,284.794 511.048,280.669C510.64,276.543 518.425,271.136 522.113,266.369C526.571,260.608 530.06,249.723 537.797,246.101C545.935,242.291 565.509,245.88 570.944,243.509C574.501,241.957 574.089,233.103 570.406,231.877C566.278,230.504 553.515,234.865 546.179,235.268C539.583,235.63 532.817,235.803 526.386,234.295C518.284,232.395 503.679,230.741 497.565,223.868C491.45,216.995 492.417,200.282 489.7,193.059C487.927,188.347 482.299,184.276 481.262,180.531C480.356,177.258 480.663,172.485 483.48,170.588C489.938,166.238 512.156,159.725 520.012,154.433C525.226,150.922 529.963,143.09 530.619,138.84C531.226,134.905 527.825,128.036 523.946,128.933C518.52,130.187 504.19,142.238 498.064,146.364C494.439,148.805 490.814,151.247 487.19,153.688C482.625,156.762 474.504,165.533 470.675,164.811C466.846,164.088 468.544,152.881 464.215,149.353C459.455,145.473 448.958,145.304 442.113,141.534C435.084,137.661 428.082,129.841 422.04,126.119C417.047,123.042 407.086,123.413 405.864,119.199C404.641,114.985 414.427,105.673 414.703,100.836C414.948,96.558 411.762,89.549 407.523,90.174C402.612,90.897 392.301,103.538 385.243,105.179C378.514,106.743 367.802,103.924 365.171,100.018C362.54,96.111 365.808,86.825 369.456,81.74C373.667,75.87 384.222,68.986 390.435,64.802C395.475,61.407 405.054,59.535 406.733,56.634C408.412,53.733 404.199,46.971 400.51,47.394C395.197,48.004 382.793,54.947 374.853,60.294C366.738,65.76 356.699,75.348 351.816,80.189C349.192,82.791 348.225,90.225 345.558,89.338C342.891,88.452 337.19,79.987 335.813,74.869C334.435,69.75 335.585,63.788 337.294,58.627C339.503,51.959 348.057,40.24 349.063,34.861C349.692,31.501 346.502,25.517 343.333,26.354C340.164,27.19 333.62,34.666 330.05,39.881C326.46,45.123 323.51,51.951 321.795,57.807C320.172,63.35 323.938,72.967 319.762,75.016C315.586,77.065 300.12,75.291 296.739,70.101C293.358,64.912 298.15,50.786 299.477,43.881C300.489,38.618 303.607,33.921 304.701,28.674C306.025,22.326 308.344,10.232 307.423,5.79C306.808,2.83 300.233,-0.809 299.171,2.022C296.44,9.307 294.317,49.935 291.037,49.5C283.399,48.485 291.348,34.075 289.832,30.186C288.76,27.434 282.782,23.574 281.939,26.161C281.097,28.748 284.351,39.137 284.779,45.707C285.253,52.966 286.623,63.062 284.779,69.712C283.055,75.932 277.817,83.499 273.718,85.606C269.619,87.713 262.778,86.2 260.187,82.352C256.545,76.944 252.751,61.574 251.865,53.158C251.114,46.027 253.83,38.593 254.871,31.858C255.859,25.474 258.703,17.613 258.113,12.75C257.625,8.732 253.427,0.72 251.33,2.679C249.233,4.638 246.604,17.053 245.533,24.504C244.345,32.764 245.889,48.07 244.202,52.236C243.05,55.081 236.692,52.217 235.41,49.5C234.129,46.782 236.2,40.46 236.515,35.934C237.005,28.905 245.641,7.589 238.348,7.324C232.374,7.108 228.501,26.513 226.988,36.994C225.244,49.075 231.569,69.989 227.882,79.809C224.591,88.575 211.047,96.712 204.865,95.913C198.683,95.115 196.012,79.383 190.791,75.016C186.175,71.156 174.192,64.208 173.537,69.712C172.881,75.216 188.592,98.99 186.86,108.04C185.128,117.089 169.779,123.851 163.146,124.011C156.514,124.17 152.547,105.156 147.067,108.998C139.923,114.007 152.247,129.876 148.447,133.911C144.647,137.945 131.105,137.048 124.266,133.204C117.428,129.361 111.346,115.519 107.414,110.848C105.524,108.603 102.649,104.028 100.677,105.179C98.706,106.33 93.9,113.557 95.585,117.753C98.676,125.445 114.85,144.26 119.219,151.33C120.832,153.941 123.404,157.555 121.796,160.169C119.355,164.139 108.862,168.867 104.569,175.151C98.717,183.718 92.148,203.83 86.684,211.572C83.233,216.463 77.772,221.397 71.789,221.603C63.885,221.876 45.558,213.027 39.257,213.209C35.641,213.313 33.932,219.734 33.98,222.692C34.028,225.649 42.231,231.092 39.544,230.954C36.857,230.815 24.198,223.419 17.86,221.86C12.568,220.559 3.46,220.294 1.515,221.603C-0.429,222.913 3.57,228.022 6.191,229.719C10.972,232.816 22.146,236.817 30.201,240.185C40.453,244.472 62.291,247.41 67.7,255.441C73.109,263.472 62.808,277.665 62.653,288.37C62.501,298.891 70.555,314.554 66.771,319.668C62.986,324.782 47.012,318.826 39.947,319.054C34.718,319.222 24.187,316.946 24.378,321.032C24.729,328.533 30.569,329.488 35.216,331.212C42.026,333.74 58.021,331.658 65.24,336.197C72.46,340.735 81.948,353.636 78.532,358.444C75.115,363.252 54.373,363.031 44.741,365.045C36.71,366.724 26.227,367.834 20.744,370.526C16.587,372.567 11.689,378.768 11.844,381.194C11.998,383.621 18.149,385.129 21.671,385.084C28.904,384.989 46.811,381.86 55.238,380.63C60.926,379.799 67.573,377.261 72.232,377.7C76.311,378.085 82.193,381.78 83.192,383.264C84.192,384.749 80.033,385.754 78.23,386.606C72.262,389.43 55.443,394.78 47.384,400.207C40.249,405.013 31.928,414.722 29.878,419.171C28.578,421.992 32.065,427.632 35.085,426.901C39.424,425.851 48.971,417.549 55.914,412.873C63.973,407.445 77.281,395.097 83.436,394.337C89.011,393.648 91.738,402.807 92.849,408.313C94.202,415.015 95.55,426.759 91.552,434.549C86.116,445.139 57.117,470.134 60.233,471.852C73.234,479.022 84.5,458.694 91.241,455.896C94.157,454.685 97.659,454.136 100.677,455.064C107.751,457.238 129.416,463.767 133.682,468.941C137.646,473.748 128.281,481.277 126.274,486.104C124.651,490.005 120.275,495.876 121.639,497.901C123.003,499.927 130.913,500.644 134.458,498.256C138.902,495.263 142.643,483.528 148.304,479.942C153.966,476.357 163.722,474.304 168.428,476.741C174.048,479.651 151.477,520.72 148.578,532.128C147.487,536.421 146.606,545.415 151.03,545.189C159.647,544.748 165.071,527.943 174.757,517.91C179.803,512.683 184.291,477.601 187.175,476.852C195.732,474.629 216.65,495.738 217.121,497.266C219.068,503.575 225.285,512.607 225.531,519.184C225.784,525.942 222.202,552.175 222.615,564.518C222.94,574.256 222.307,595.641 228.009,593.245C242.458,587.174 232.705,540.025 236.571,522.526C238.755,512.641 245.151,512.346 247.166,512.962C256.61,515.848 258.122,510.945 263.601,510.398C269.058,509.854 277.919,504.623 280.038,509.681C283.095,516.974 279.64,540.918 281.939,554.161C284.046,566.293 290.443,577.369 293.832,589.137C297.209,600.866 299.078,620.031 302.269,624.768C304.672,628.336 311.916,621.728 312.973,617.558C314.214,612.663 311.694,602.595 309.711,595.396C307.217,586.342 300.755,574.307 298.009,563.234C294.896,550.686 291.6,529.673 291.037,520.105C290.748,515.206 290.758,508.436 294.63,505.828C298.503,503.22 309.227,500.998 314.272,504.456C319.318,507.914 322.544,518.744 324.906,526.576C328.128,537.263 329.122,556.985 333.607,568.578C337.58,578.845 347.438,597.494 351.816,596.132C356.865,594.561 354.42,589.967 354.276,586.731C354.013,580.809 353.05,568.952 350.238,560.599C346.793,550.365 334.386,534.527 333.607,525.33C332.954,517.615 340.198,509.408 345.567,505.418C350.936,501.427 361.19,496.292 365.82,501.386C372.294,508.507 377.468,534.647 384.41,548.148C390.702,560.385 402.084,574.39 407.47,582.388C410.556,586.969 413.813,594.765 416.727,596.132C419.641,597.499 425.126,593.805 424.955,590.59C424.783,587.376 417.282,581.845 415.698,576.846C414.114,571.848 417.353,565.67 415.449,560.599C412.667,553.188 404.004,542.051 399.005,532.38C393.762,522.237 384.309,507.547 383.994,499.745C383.735,493.311 390.858,485.137 397.117,485.568C403.375,485.998 413.796,496.207 421.546,502.327C431.498,510.188 446.967,546.054 456.829,532.73C460.166,528.221 442.904,512.055 438.276,505.183C435.203,500.62 429.827,496.611 429.057,491.495C428.288,486.379 428.848,474.408 433.658,474.484C438.468,474.561 450.338,485.484 457.915,491.956C466.297,499.114 476.924,512.745 483.951,517.437C488.483,520.463 498.275,521.817 500.08,520.105Z" style="fill:url(#_Radial2);stroke:#005f7a;stroke-width:1.2px;"/><path id="Highlight" d="M500.08,520.105C501.885,518.394 497.99,510.548 494.781,507.169C489.322,501.421 473.03,494.084 467.327,485.616C461.737,477.315 455.903,462.818 460.564,456.363C465.224,449.909 483.689,445.218 495.289,446.888C506.89,448.558 521.057,462.53 530.169,466.383C536.346,468.995 547.971,471.346 549.961,470.006C551.951,468.666 545.702,461.349 542.106,458.343C535.488,452.81 520.045,441.675 510.252,436.811C501.902,432.664 486.695,434.127 483.35,429.16C480.004,424.193 486.406,413.751 490.179,407.007C494.355,399.544 498.74,383.746 508.404,384.38C522.658,385.316 562.588,409.197 575.708,412.623C580.147,413.782 587.571,407.949 587.125,404.933C586.68,401.917 578.332,396.984 573.035,394.527C562.253,389.526 531.934,383.604 522.436,374.93C514.295,367.495 515.099,352.08 516.046,342.478C516.959,333.221 525.188,323.015 528.116,317.317C529.726,314.185 530.177,309.062 533.614,308.294C541.352,306.565 565.67,308.215 574.544,306.941C579.109,306.285 586.725,303.177 586.864,300.646C587.003,298.116 580.164,292.49 575.379,291.759C564.995,290.172 535.282,292.973 524.56,291.124C518.948,290.157 511.456,284.794 511.048,280.669C510.64,276.543 518.425,271.136 522.113,266.369C526.571,260.608 530.06,249.723 537.797,246.101C545.935,242.291 565.509,245.88 570.944,243.509C574.501,241.957 574.089,233.103 570.406,231.877C566.278,230.504 553.515,234.865 546.179,235.268C539.583,235.63 532.817,235.803 526.386,234.295C518.284,232.395 503.679,230.741 497.565,223.868C491.45,216.995 492.417,200.282 489.7,193.059C487.927,188.347 482.299,184.276 481.262,180.531C480.356,177.258 480.663,172.485 483.48,170.588C489.938,166.238 512.156,159.725 520.012,154.433C525.226,150.922 529.963,143.09 530.619,138.84C531.226,134.905 527.825,128.036 523.946,128.933C518.52,130.187 504.19,142.238 498.064,146.364C494.439,148.805 490.814,151.247 487.19,153.688C482.625,156.762 474.504,165.533 470.675,164.811C466.846,164.088 468.544,152.881 464.215,149.353C459.455,145.473 448.958,145.304 442.113,141.534C435.084,137.661 428.082,129.841 422.04,126.119C417.047,123.042 407.086,123.413 405.864,119.199C404.641,114.985 414.427,105.673 414.703,100.836C414.948,96.558 411.762,89.549 407.523,90.174C402.612,90.897 392.301,103.538 385.243,105.179C378.514,106.743 367.802,103.924 365.171,100.018C362.54,96.111 365.808,86.825 369.456,81.74C373.667,75.87 384.222,68.986 390.435,64.802C395.475,61.407 405.054,59.535 406.733,56.634C408.412,53.733 404.199,46.971 400.51,47.394C395.197,48.004 382.793,54.947 374.853,60.294C366.738,65.76 356.699,75.348 351.816,80.189C349.192,82.791 348.225,90.225 345.558,89.338C342.891,88.452 337.19,79.987 335.813,74.869C334.435,69.75 335.585,63.788 337.294,58.627C339.503,51.959 348.057,40.24 349.063,34.861C349.692,31.501 346.502,25.517 343.333,26.354C340.164,27.19 333.62,34.666 330.05,39.881C326.46,45.123 323.51,51.951 321.795,57.807C320.172,63.35 323.938,72.967 319.762,75.016C315.586,77.065 300.12,75.291 296.739,70.101C293.358,64.912 298.15,50.786 299.477,43.881C300.489,38.618 303.607,33.921 304.701,28.674C306.025,22.326 308.344,10.232 307.423,5.79C306.808,2.83 300.233,-0.809 299.171,2.022C296.44,9.307 294.317,49.935 291.037,49.5C283.399,48.485 291.348,34.075 289.832,30.186C288.76,27.434 282.782,23.574 281.939,26.161C281.097,28.748 284.351,39.137 284.779,45.707C285.253,52.966 286.623,63.062 284.779,69.712C283.055,75.932 277.817,83.499 273.718,85.606C269.619,87.713 262.778,86.2 260.187,82.352C256.545,76.944 252.751,61.574 251.865,53.158C251.114,46.027 253.83,38.593 254.871,31.858C255.859,25.474 258.703,17.613 258.113,12.75C257.625,8.732 253.427,0.72 251.33,2.679C249.233,4.638 246.604,17.053 245.533,24.504C244.345,32.764 245.889,48.07 244.202,52.236C243.05,55.081 236.692,52.217 235.41,49.5C234.129,46.782 236.2,40.46 236.515,35.934C237.005,28.905 245.641,7.589 238.348,7.324C232.374,7.108 228.501,26.513 226.988,36.994C225.244,49.075 231.569,69.989 227.882,79.809C224.591,88.575 211.047,96.712 204.865,95.913C198.683,95.115 196.012,79.383 190.791,75.016C186.175,71.156 174.192,64.208 173.537,69.712C172.881,75.216 188.592,98.99 186.86,108.04C185.128,117.089 169.779,123.851 163.146,124.011C156.514,124.17 152.547,105.156 147.067,108.998C139.923,114.007 152.247,129.876 148.447,133.911C144.647,137.945 131.105,137.048 124.266,133.204C117.428,129.361 111.346,115.519 107.414,110.848C105.524,108.603 102.649,104.028 100.677,105.179C98.706,106.33 93.9,113.557 95.585,117.753C98.676,125.445 114.85,144.26 119.219,151.33C120.832,153.941 123.404,157.555 121.796,160.169C119.355,164.139 108.862,168.867 104.569,175.151C98.717,183.718 92.148,203.83 86.684,211.572C83.233,216.463 77.772,221.397 71.789,221.603C63.885,221.876 45.558,213.027 39.257,213.209C35.641,213.313 33.932,219.734 33.98,222.692C34.028,225.649 42.231,231.092 39.544,230.954C36.857,230.815 24.198,223.419 17.86,221.86C12.568,220.559 3.46,220.294 1.515,221.603C-0.429,222.913 3.57,228.022 6.191,229.719C10.972,232.816 22.146,236.817 30.201,240.185C40.453,244.472 62.291,247.41 67.7,255.441C73.109,263.472 62.808,277.665 62.653,288.37C62.501,298.891 70.555,314.554 66.771,319.668C62.986,324.782 47.012,318.826 39.947,319.054C34.718,319.222 24.187,316.946 24.378,321.032C24.729,328.533 30.569,329.488 35.216,331.212C42.026,333.74 58.021,331.658 65.24,336.197C72.46,340.735 81.948,353.636 78.532,358.444C75.115,363.252 54.373,363.031 44.741,365.045C36.71,366.724 26.227,367.834 20.744,370.526C16.587,372.567 11.689,378.768 11.844,381.194C11.998,383.621 18.149,385.129 21.671,385.084C28.904,384.989 46.811,381.86 55.238,380.63C60.926,379.799 67.573,377.261 72.232,377.7C76.311,378.085 82.193,381.78 83.192,383.264C84.192,384.749 80.033,385.754 78.23,386.606C72.262,389.43 55.443,394.78 47.384,400.207C40.249,405.013 31.928,414.722 29.878,419.171C28.578,421.992 32.065,427.632 35.085,426.901C39.424,425.851 48.971,417.549 55.914,412.873C63.973,407.445 77.281,395.097 83.436,394.337C89.011,393.648 91.738,402.807 92.849,408.313C94.202,415.015 95.55,426.759 91.552,434.549C86.116,445.139 57.117,470.134 60.233,471.852C73.234,479.022 84.5,458.694 91.241,455.896C94.157,454.685 97.659,454.136 100.677,455.064C107.751,457.238 129.416,463.767 133.682,468.941C137.646,473.748 128.281,481.277 126.274,486.104C124.651,490.005 120.275,495.876 121.639,497.901C123.003,499.927 130.913,500.644 134.458,498.256C138.902,495.263 142.643,483.528 148.304,479.942C153.966,476.357 163.722,474.304 168.428,476.741C174.048,479.651 151.477,520.72 148.578,532.128C147.487,536.421 146.606,545.415 151.03,545.189C159.647,544.748 165.071,527.943 174.757,517.91C179.803,512.683 184.291,477.601 187.175,476.852C195.732,474.629 216.65,495.738 217.121,497.266C219.068,503.575 225.285,512.607 225.531,519.184C225.784,525.942 222.202,552.175 222.615,564.518C222.94,574.256 222.307,595.641 228.009,593.245C242.458,587.174 232.705,540.025 236.571,522.526C238.755,512.641 245.151,512.346 247.166,512.962C256.61,515.848 258.122,510.945 263.601,510.398C269.058,509.854 277.919,504.623 280.038,509.681C283.095,516.974 279.64,540.918 281.939,554.161C284.046,566.293 290.443,577.369 293.832,589.137C297.209,600.866 299.078,620.031 302.269,624.768C304.672,628.336 311.916,621.728 312.973,617.558C314.214,612.663 311.694,602.595 309.711,595.396C307.217,586.342 300.755,574.307 298.009,563.234C294.896,550.686 291.6,529.673 291.037,520.105C290.748,515.206 290.758,508.436 294.63,505.828C298.503,503.22 309.227,500.998 314.272,504.456C319.318,507.914 322.544,518.744 324.906,526.576C328.128,537.263 329.122,556.985 333.607,568.578C337.58,578.845 347.438,597.494 351.816,596.132C356.865,594.561 354.42,589.967 354.276,586.731C354.013,580.809 353.05,568.952 350.238,560.599C346.793,550.365 334.386,534.527 333.607,525.33C332.954,517.615 340.198,509.408 345.567,505.418C350.936,501.427 361.19,496.292 365.82,501.386C372.294,508.507 377.468,534.647 384.41,548.148C390.702,560.385 402.084,574.39 407.47,582.388C410.556,586.969 413.813,594.765 416.727,596.132C419.641,597.499 425.126,593.805 424.955,590.59C424.783,587.376 417.282,581.845 415.698,576.846C414.114,571.848 417.353,565.67 415.449,560.599C412.667,553.188 404.004,542.051 399.005,532.38C393.762,522.237 384.309,507.547 383.994,499.745C383.735,493.311 390.858,485.137 397.117,485.568C403.375,485.998 413.796,496.207 421.546,502.327C431.498,510.188 446.967,546.054 456.829,532.73C460.166,528.221 442.904,512.055 438.276,505.183C435.203,500.62 429.827,496.611 429.057,491.495C428.288,486.379 428.848,474.408 433.658,474.484C438.468,474.561 450.338,485.484 457.915,491.956C466.297,499.114 476.924,512.745 483.951,517.437C488.483,520.463 498.275,521.817 500.08,520.105Z" style="fill:url(#_Radial3);"/><g id="Side-arms" serif:id="Side arms"><path d="M187.175,464.736C195.732,462.514 196.593,481.443 196.157,486.031C193.836,510.468 186.113,539.949 181.217,563.94C179.933,570.233 179.356,577.621 183.917,581.101C184.737,581.726 194.439,582.521 195.758,578.717C199.594,567.651 200.566,536.15 206.934,514.701C208.051,510.937 215.543,475.197 226.413,476.843" style="fill:url(#_Linear4);stroke:#005f7a;stroke-width:1.8px;"/><path d="M240.248,491.286C249.692,494.172 253.412,542.981 250.765,560.269C249.894,565.956 255.115,572.014 261.045,570.478C266.06,569.179 266.07,553.415 265.182,544.786C263.995,533.267 255.341,510.709 253.925,501.365C253.278,497.101 253.484,490.949 256.683,488.722" style="fill:url(#_Linear5);stroke:#005f7a;stroke-width:1.8px;"/><path d="M335.334,499.942C339.197,507.286 346.923,521.973 349.792,528.248C351.142,531.202 351.382,537.694 352.549,537.593C358.182,537.108 356.72,529.842 356.338,525.698C355.681,518.561 350.964,502.702 348.606,494.772" style="fill:url(#_Linear6);stroke:#005f7a;stroke-width:1.8px;"/><path d="M371.693,481.58C376.325,481.626 385.588,481.717 390.016,484.156C394.28,486.505 395.62,492.355 398.258,496.214C400.787,499.914 403.27,505.084 405.844,507.314C407.907,509.1 412.221,510.609 413.706,509.595C415.191,508.58 415.804,503.833 414.752,501.225C413.127,497.198 405.627,489.954 403.957,485.432C402.645,481.879 404.036,476.691 404.732,474.097" style="fill:url(#_Linear7);stroke:#005f7a;stroke-width:1.8px;"/><path d="M420.657,441.634C434.801,442.816 444.377,449.805 451.892,452.938C456.723,454.953 461.307,457.611 465.747,460.436C471.637,464.182 481.902,473.277 487.227,475.417C490.576,476.763 496.847,475.184 497.699,473.279C498.552,471.373 494.944,466.407 492.342,463.983C487.584,459.551 474.946,451.044 469.147,446.683C465.26,443.76 460.426,441.169 457.55,437.821C454.829,434.652 453.321,430.534 451.892,426.592C450.271,422.119 448.639,414.696 447.823,410.984" style="fill:url(#_Linear8);stroke:#005f7a;stroke-width:1.8px;"/><path d="M490.464,372.315C491.946,370.931 494.911,368.162 497.73,367.348C501.954,366.129 509.768,364.341 515.809,364.998C528.115,366.338 561.022,374.169 571.57,375.389C574.264,375.7 578.764,374.047 579.102,372.315C579.44,370.583 576.087,366.539 573.598,364.998C571.11,363.458 567.272,363.892 564.172,363.072C558.412,361.549 547.098,357.977 539.038,355.861C531.342,353.84 520.576,352.599 515.809,350.374C512.931,349.03 511.778,344.476 510.432,342.507C509.532,341.191 508.333,339.437 507.733,338.559" style="fill:url(#_Linear9);stroke:#005f7a;stroke-width:1.8px;"/><path d="M494.109,324.447C497.607,321.791 504.601,316.48 508.989,315.364C512.766,314.403 516.724,316.558 520.435,317.748C525.433,319.35 534.24,322.58 538.976,324.976C542.602,326.81 546.58,332.961 548.852,332.122C551.125,331.283 554.646,323.674 552.611,319.945C550.372,315.842 539.724,310.621 535.417,307.504C532.534,305.418 529.932,302.874 526.768,301.246C523.24,299.431 517.859,297.795 514.249,296.612C511.25,295.628 508.263,294.233 505.109,294.144C501.114,294.03 493.893,295.298 490.282,295.931" style="fill:url(#_Linear10);stroke:#005f7a;stroke-width:1.8px;"/><path d="M505.09,248.809C510.536,251.267 515.596,253.204 521.537,253.858C522.814,253.999 524.093,254.139 525.364,254.328C529.893,255.003 540.098,257.213 537.771,264.055C537.506,264.833 536.999,265.501 536.488,266.134C535.827,266.954 535.053,267.756 534.152,268.319C532.769,269.185 531.166,269.75 529.585,270.134C522.701,271.806 516.484,265.707 510.246,263.715C501.627,260.964 491.607,264.623 484.647,269.901" style="fill:url(#_Linear11);stroke:#005f7a;stroke-width:1.8px;"/><path d="M483.013,235.97C484.951,234.392 488.829,231.236 492.202,229.689C497.791,227.127 509,222.633 516.546,220.596C523.356,218.758 531.154,217.787 537.476,217.468C543.151,217.181 550.546,218.878 554.478,218.681C556.814,218.565 560.726,219.156 561.072,216.289C561.452,213.147 558.17,211.378 555.675,210.595C551.899,209.41 544.148,208.5 538.415,209.177C528.551,210.342 505.724,216.398 496.496,217.583C492.027,218.157 486.232,216.823 483.043,216.289C481.072,215.959 478.597,214.905 477.36,214.378" style="fill:url(#_Linear12);stroke:#005f7a;stroke-width:1.8px;"/><path d="M468.842,210.343L496.186,191.653C498.693,189.939 501.045,187.972 503.708,186.512C508.236,184.03 516.543,179.427 523.348,176.761C530.811,173.837 542.759,171.317 548.485,168.968C551.928,167.555 556.249,165.226 557.704,162.667C559.159,160.108 559.766,154.046 557.215,153.613C554.665,153.179 547.371,157.991 542.4,160.066C537.012,162.316 530.428,164.143 524.886,167.11C519.343,170.077 514.632,174.664 509.144,177.87C503.275,181.297 495.306,185.24 489.671,187.674C485.045,189.672 479.574,191.342 475.334,192.472C471.702,193.44 466.722,194.115 464.233,194.452" style="fill:url(#_Linear13);stroke:#005f7a;stroke-width:1.8px;"/><path d="M444.855,160.145C448.234,157.264 454.994,151.503 458.82,147.882C461.98,144.893 465.896,142.329 467.812,138.424C469.872,134.227 468.916,126.482 471.18,122.698C473.297,119.158 478.968,115.137 481.394,115.716C483.821,116.295 486.728,122.529 485.739,126.171C484.658,130.152 478.414,135.042 474.909,139.602C471.226,144.395 465.897,150.465 463.637,154.929C461.877,158.405 462.19,163.278 461.348,166.39C460.676,168.875 459.283,172.026 458.587,173.601" style="fill:url(#_Linear14);stroke:#005f7a;stroke-width:1.8px;"/><path d="M405.642,147.298C409.689,141.798 417.783,130.798 421.041,125.414C422.975,122.216 423.959,118.526 425.185,114.996C427.036,109.665 430.202,98.858 432.145,93.429C433.489,89.673 435.124,84.897 436.844,82.423C438.138,80.56 440.921,78.337 442.462,78.583C444.004,78.828 446.203,81.753 446.093,83.895C445.936,86.971 443.108,92.68 441.515,97.036C439.533,102.457 436.046,111.329 434.2,116.42C432.862,120.11 431.292,123.747 430.44,127.578C429.231,133.014 426.999,144.681 426.947,149.033C426.925,150.913 429.061,152.764 430.129,153.689" style="fill:url(#_Linear15);stroke:#005f7a;stroke-width:1.8px;"/><path d="M372.922,107.895C374.323,106.433 377.124,103.507 378.599,100.888C380.144,98.143 381.05,93.374 382.195,91.424C382.863,90.285 384.721,88.098 385.466,89.189C386.253,90.34 386.667,95.255 386.916,98.331C387.18,101.596 386.71,105.828 387.052,108.782C387.34,111.272 388.423,114.46 388.965,116.054" style="fill:url(#_Linear16);stroke:#005f7a;stroke-width:1.8px;"/><path d="M336.663,109.479C338.204,105.697 341.285,98.134 342.901,92.995C344.377,88.301 345.588,83.022 346.359,78.644C347.051,74.714 347.549,70.19 347.528,66.728C347.509,63.744 345.723,59.842 346.232,57.871C346.67,56.171 349.098,54.287 350.58,54.899C352.061,55.51 354.467,58.939 355.119,61.54C356.194,65.828 356.61,75.029 357.029,80.629C357.391,85.458 357.367,90.773 357.636,95.144C357.876,99.055 358.386,104.256 358.641,106.856" style="fill:url(#_Linear17);stroke:#005f7a;stroke-width:1.8px;"/><path d="M252.966,108.73C251.882,104.39 249.714,95.71 250.41,90.343C251.069,85.261 255.118,80.959 257.142,76.524C259.064,72.313 261.102,68.13 262.555,63.735C264.138,58.949 265.162,49.301 266.637,47.809C268.111,46.317 270.968,52.002 271.404,54.784C272.145,59.518 272.166,69.151 271.084,76.212C269.989,83.354 266.554,92.875 264.837,97.635" style="fill:url(#_Linear18);stroke:#005f7a;stroke-width:1.8px;"/><path d="M204.91,110.513C205.076,106.814 205.408,99.415 205.432,94.806C205.452,90.822 205.238,86.839 205.054,82.859C204.761,76.529 202.462,59.947 203.674,56.825C204.885,53.702 210.941,60.616 212.323,64.127C213.718,67.67 210.945,73.561 212.043,78.082C213.477,83.989 218.557,94.683 220.928,99.565C222.305,102.402 224.945,105.717 226.265,107.374" style="fill:url(#_Linear19);stroke:#005f7a;stroke-width:1.8px;"/><path d="M162.58,156.496C157.724,157.582 148.011,159.755 142.853,159.37C138.743,159.063 135.194,156.253 131.63,154.184C127.976,152.063 124.126,148.074 120.93,146.644C118.331,145.481 115.29,145.829 112.452,145.604C108.908,145.323 102.877,145.073 99.661,144.959C97.495,144.882 94.404,144.07 93.159,144.922C91.913,145.773 91.694,148.393 92.187,150.068C92.754,151.992 94.159,155.516 96.561,156.466C99.066,157.457 103.667,155.844 107.218,156.016C111.237,156.209 117.505,156.008 120.67,157.628C123.584,159.119 124.187,163.49 126.211,165.734C128.109,167.838 131.246,170.006 132.814,171.09" style="fill:url(#_Linear20);stroke:#005f7a;stroke-width:1.8px;"/><path d="M106.381,206.576C103.082,204.485 96.483,200.303 93.177,197.109C90.361,194.387 88.228,190.835 86.548,187.41C84.876,184.002 84.413,180.118 83.095,176.559C81.768,172.976 80.528,166.373 78.587,165.912C76.646,165.45 72.118,171.044 71.45,173.789C70.781,176.535 73.455,179.548 74.575,182.382C75.97,185.915 77.563,191.037 79.824,194.987C82.708,200.028 87.532,207.087 91.88,212.627C96.198,218.129 102.673,224.862 105.91,228.228" style="fill:url(#_Linear21);stroke:#005f7a;stroke-width:1.8px;"/><path d="M72.131,261.853C66.968,261.584 56.643,261.045 50.505,260.808C45.44,260.613 40.298,259.565 35.305,260.433C29.782,261.394 17.407,259.24 17.37,266.573C17.36,268.623 23.924,269.286 27.393,269.855C31.547,270.535 37.35,270.099 42.292,270.657C47.582,271.253 54.5,272.759 59.135,273.435C62.776,273.965 67.287,274.443 70.101,274.707C72.067,274.892 74.7,274.979 76.017,275.023" style="fill:url(#_Linear22);stroke:#005f7a;stroke-width:1.8px;"/><path d="M97.151,277.569C92.464,278.957 83.09,281.734 77.644,283.256C73.275,284.478 68.598,284.807 64.476,286.703C60.335,288.608 56.234,292.336 52.798,294.685C49.818,296.722 43.848,298.603 43.858,300.796C43.867,302.989 49.069,308.233 52.856,307.844C56.642,307.456 62.889,300.481 66.578,298.465C69.163,297.052 72.631,296.207 74.989,295.75C76.865,295.386 78.892,295.177 80.724,295.724C83.068,296.425 87.665,297.917 89.057,299.954C90.449,301.99 89.533,305.958 89.075,307.942" style="fill:url(#_Linear23);stroke:#005f7a;stroke-width:1.8px;"/><path d="M119.874,372.292C116.15,374.419 108.702,378.672 105.372,382.204C102.505,385.245 102.754,390.433 99.895,393.482C96.616,396.979 89.482,399.984 85.696,403.186C82.448,405.934 78.61,409.62 77.183,412.697C75.928,415.403 74.286,421.137 77.136,421.645C79.985,422.154 88.745,418.171 94.283,415.748C100.528,413.016 109.262,407.777 114.608,405.249C118.417,403.448 122.872,401.445 126.356,400.581C129.322,399.845 133.447,399.993 135.51,400.067" style="fill:url(#_Linear24);stroke:#005f7a;stroke-width:1.8px;"/><path d="M116.295,447.749C115.692,450.344 114.484,455.532 113.829,459.471C113.149,463.564 113.363,468.15 112.212,472.306C111.06,476.468 106.874,482.298 106.915,484.445C106.95,486.308 110.917,486.24 112.456,485.188C115.18,483.326 120.577,477.282 123.262,473.272C125.72,469.601 126.336,464.755 128.568,461.127C130.762,457.558 134.687,453.519 136.649,451.5" style="fill:url(#_Linear25);stroke:#005f7a;stroke-width:1.8px;"/><path d="M330.563,457.507C341.417,464.357 344.281,476.992 348.945,488.163C350.912,492.875 353.326,500.261 358.165,503.062C362.567,505.61 367.422,503.239 367.861,497.84C368.182,493.899 365.936,490.412 363.681,487.392C359.38,481.633 356.581,475.884 354.986,468.845C352.945,459.842 353.999,450.71 356.415,441.88" style="fill:url(#_Linear26);stroke:#005f7a;stroke-width:1.8px;"/><path d="M263.969,461.832C267.75,472.284 268.617,482.556 266.68,493.529C265.569,499.819 259.744,507.791 264.775,514.039C265.986,515.544 267.957,515.591 269.74,515.483C274.561,515.193 277.558,511.464 279.077,507.233C281.867,499.464 280.879,491.848 281.037,483.801C281.198,475.637 282.975,465.767 286.425,458.251" style="fill:url(#_Linear27);stroke:#005f7a;stroke-width:1.8px;"/></g><g id="Foreground-arms" serif:id="Foreground arms"><path d="M138.208,219.641C134.666,217.238 131.378,214.088 128.093,211.323C126.16,209.697 123.848,208.265 122.11,206.435C117.762,201.859 115.611,195.133 113.976,189.213C113.009,185.713 109.905,178.316 113.516,175.286C113.915,174.952 115.107,175.292 115.557,175.335C117.588,175.529 119.725,176.494 120.973,178.251C125.753,184.987 128.898,194.604 136.284,198.992C138.809,200.492 141.649,200.974 144.385,201.922C145.336,202.251 146.302,202.558 147.277,202.805" style="fill:url(#_Linear28);stroke:#005f7a;stroke-width:1.8px;"/><path d="M176.761,188.581C171.694,177.593 168.938,164.865 174.272,153.531C175.881,150.112 178.989,144.313 183.502,144.234C189.892,144.122 188.085,150.895 185.891,154.787C182.203,161.327 177.969,166.743 181.475,174.277C182.072,175.559 182.785,176.804 183.697,177.89C184.863,179.278 186.218,180.43 187.758,181.384C189.821,182.662 192.097,183.475 194.419,184.135" style="fill:url(#_Linear29);stroke:#005f7a;stroke-width:1.8px;"/><path d="M217.088,170.47C217.157,162.379 212.813,155.324 211.877,147.394C211.274,142.287 213.931,137.27 212.712,132.37C211.58,127.813 206.936,123.532 207.022,118.716C207.061,116.512 209.722,115.6 211.459,115.61C215.331,115.634 219.054,118.11 221.416,121.046C224.767,125.21 224.886,130.665 225.83,135.687C227.04,142.126 230.22,149.631 236.476,152.691" style="fill:url(#_Linear30);stroke:#005f7a;stroke-width:1.8px;"/><path d="M310.064,144.132C313.83,133.795 313.532,121.714 311.742,111.008C310.867,105.775 308.259,96.278 312.796,91.992C317.53,87.519 323.226,92.122 323.897,97.624C324.532,102.833 323.59,108.039 325.188,113.14C327.27,119.783 331.547,125.421 334.037,131.881C337.558,141.018 336.623,150.597 332.957,159.536" style="fill:url(#_Linear31);stroke:#005f7a;stroke-width:1.8px;"/><path d="M351.419,201.182C357.127,192.946 365.432,188.001 372.122,180.685C376.177,176.25 378.289,170.913 381.055,165.689C382.774,162.442 386.156,154.909 391.024,156.098C396.787,157.505 396.979,164.471 394.506,168.674C391.176,174.332 384.865,177.353 381.291,182.919C376.6,190.226 374.202,198.665 369.74,206.085C367.56,209.711 364.553,212.62 361.599,215.599" style="fill:url(#_Linear32);stroke:#005f7a;stroke-width:1.8px;"/><path d="M393.888,202.952C404.095,203.653 410.205,196.737 419.056,193.202C426.128,190.377 434.339,190.174 441.063,186.666C446.301,183.934 450.814,175.415 457.651,176.753C460.267,177.264 461.377,180.121 461.156,182.547C460.749,187.017 457.77,191.132 454.389,193.915C447.775,199.36 439.091,200.607 431.77,204.725C425.535,208.232 419.924,213.193 414.438,217.754C410.641,220.91 406.494,223.697 402.793,226.955" style="fill:url(#_Linear33);stroke:#005f7a;stroke-width:1.8px;"/><path d="M373.043,282.205C378.539,280.803 382.278,277.202 386.476,273.569C392.887,268.021 399.057,262.025 407.496,259.834C409.367,259.348 411.278,259.012 413.189,258.731C414.664,258.513 416.148,258.352 417.632,258.204C418.786,258.089 419.941,257.997 421.101,257.937C424.632,257.752 428.306,257.931 431.713,258.949C434.817,259.877 436.726,260.843 434.847,264.387C434.384,265.26 433.835,266.077 433.186,266.824C427.961,272.84 419.595,272.487 412.797,275.484C407.633,277.761 403.799,282.752 399.257,285.99C393.803,289.879 387.819,291.706 381.29,292.755" style="fill:url(#_Linear34);stroke:#005f7a;stroke-width:1.8px;"/><path d="M424.256,281.82C429.865,280.657 436.077,280.169 441.8,280.746C446.3,281.199 450.64,282.551 455.194,282.582C462.314,282.63 469.101,280.053 476.316,280.713C480.607,281.106 486.434,283.711 484.352,289.13C483.975,290.11 483.397,291.021 482.752,291.844C481.858,292.983 480.722,293.945 479.486,294.694C471.941,299.265 463.732,295.833 455.825,294.66C446.007,293.205 436.093,293.788 427.242,298.586" style="fill:url(#_Linear35);stroke:#005f7a;stroke-width:1.8px;"/><path d="M418.027,332.975C422.793,341.703 428.685,352.622 439.264,354.911C452.031,357.673 465.719,350.024 477.478,357.433C482.44,360.56 486.284,366.078 481.31,371.399C480.479,372.288 479.497,373.05 478.409,373.596C474.283,375.667 469.3,374.935 465.08,373.631C461.718,372.592 458.628,370.781 455.281,369.679C450.395,368.072 445.06,367.693 439.941,367.968C429.232,368.543 421.586,373.521 411.953,377.713" style="fill:url(#_Linear36);stroke:#005f7a;stroke-width:1.8px;"/><path d="M335.655,386.985C341.487,387.345 345.876,390.07 349.888,394.207C358.538,403.125 361.798,416.562 371.826,424.21C373.545,425.522 375.393,426.685 377.212,427.854C380.278,429.825 385.005,432.817 387.296,428.198C387.597,427.591 387.768,426.928 387.867,426.261C388.001,425.355 388.017,424.423 387.903,423.515C387.143,417.488 383.419,411.791 380.009,406.959C376.501,401.988 372.26,397.618 368.533,392.815C361.621,383.908 356.32,375.03 354.7,363.764" style="fill:url(#_Linear37);stroke:#005f7a;stroke-width:1.8px;"/><path d="M284.556,407.574C288.083,412.787 291.381,418.388 293.165,424.466C294.436,428.796 294.723,433.17 295.399,437.603C296.658,445.859 297.984,454.613 300.334,462.631C301.47,466.505 303.163,471.922 306.589,474.482C307.435,475.114 310.267,476.584 311.371,475.576C313.189,473.918 313.261,471.048 313.029,468.801C312.439,463.072 310.059,457.438 307.961,452.138C306.139,447.536 304.01,443.027 303.197,438.107C301.538,428.072 304.105,415.846 308.211,406.589" style="fill:url(#_Linear38);stroke:#005f7a;stroke-width:1.8px;"/><path d="M246.524,396.766C240.58,401.119 237.816,406.9 235.776,413.96C234.792,417.367 234.377,420.853 232.93,424.127C230.677,429.228 227.061,433.289 222.93,436.927C220.022,439.489 216.491,441.7 214.498,445.123C212.249,448.983 211.184,453.336 212.289,457.764C213.63,463.142 218.211,465.514 223.223,461.906C225.385,460.351 226.197,457.779 227.204,455.437C228.811,451.696 230.319,447.792 232.404,444.285C235.404,439.236 240.652,436.161 244.135,431.506C249.627,424.165 251.522,414.97 252.855,406.122" style="fill:url(#_Linear39);stroke:#005f7a;stroke-width:1.8px;"/><path d="M199.452,388.801C189.385,397.603 188.615,411.806 182.052,422.793C178.212,429.222 172.298,434.454 166.295,438.786C162.58,441.467 157.837,443.967 155.084,447.748C154.548,448.485 154.085,449.297 153.775,450.155C151.142,457.466 161.647,459.488 166.402,458.951C169.8,458.567 173.13,457.573 176.268,456.227C179.104,455.012 182.251,453.621 184.428,451.367C189.5,446.118 190.744,437.248 193.276,430.673C196.449,422.434 202.639,413.125 210.943,409.325" style="fill:url(#_Linear40);stroke:#005f7a;stroke-width:1.8px;"/><path d="M201.186,373.881C196.413,373.412 191.085,373.97 186.476,375.368C183.597,376.242 180.744,378.221 177.64,378.196C173.547,378.162 169.937,375.416 166.185,374.172C162.283,372.879 158.049,372.866 153.98,372.899C147.962,372.948 141.713,373.319 135.798,371.973C133.09,371.356 129.934,370.257 128.319,367.822C127.107,365.994 128.045,363.527 129.136,361.882C131.488,358.337 136.525,356.031 140.805,355.788C146.835,355.446 151.286,358.51 156.729,360.673C160.671,362.24 165.081,362.959 169.316,363.266C175.934,363.746 181.394,360.803 187.689,359.444C191.698,358.579 196.037,358.947 200.043,359.738" style="fill:url(#_Linear41);stroke:#005f7a;stroke-width:1.8px;"/><path d="M290.007,319.989C284.326,323.644 281.137,329.887 282.214,336.167C282.609,338.469 282.594,345.836 282.214,348.386C281.666,352.06 271.246,359.455 268.663,357.128C263.632,352.596 268.33,341.063 268.663,335.945C269.116,328.982 273.251,321.526 277.791,315.709" style="fill:url(#_Linear42);stroke:#005f7a;stroke-width:1.8px;"/><path d="M312.39,270.142C314.39,269.463 316.548,268.733 318.271,267.468C319.957,266.23 320.671,263.991 321.125,262.041C322.494,256.152 319.571,250.165 318.2,244.526C317.643,242.235 316.556,239.309 317.658,236.998C321.023,229.942 332.393,233.568 335.57,238.938C338.989,244.714 335.545,252.107 335.979,258.385C336.495,265.838 341.464,271.941 346.749,276.797" style="fill:url(#_Linear43);stroke:#005f7a;stroke-width:1.8px;"/><path d="M294.234,230.881C294.27,222.143 296.015,216.774 303.548,211.927C305.455,210.7 307.52,209.788 309.587,208.871C310.902,208.288 312.219,207.708 313.587,207.254C318.317,205.683 324.842,206.703 325.481,200.058C325.595,198.867 325.228,197.883 324.492,196.918C321.3,192.731 314.427,193.177 309.707,193.542C305.104,193.898 300.335,194.571 296.027,196.333C287.373,199.871 280.113,207.784 276.275,216.204" style="fill:url(#_Linear44);stroke:#005f7a;stroke-width:1.8px;"/><path d="M276.116,188.175C274.343,181.929 277.349,177.957 280.128,172.526C281.572,169.704 282.333,166.574 283.013,163.496C284.659,156.047 284.822,147.051 282.658,139.681C281.55,135.91 278.606,128.934 275.215,134.559C271.084,141.41 275.727,149.923 275.192,157.258C274.484,166.973 268.248,172.436 262.028,179.158" style="fill:url(#_Linear45);stroke:#005f7a;stroke-width:1.8px;"/><path d="M254.241,230.414C249.547,225.035 250.213,216.212 246.67,209.981C242.962,203.459 236.252,196.91 229.511,193.632C225.042,191.459 220.58,192.537 219.995,198.181C219.854,199.541 220.028,200.889 220.293,202.224C221.879,210.219 229.305,215.875 235.101,220.929C237.248,222.801 240.24,224.704 241.618,227.306C244.929,233.559 242.162,242.137 241.186,248.673" style="fill:url(#_Linear46);stroke:#005f7a;stroke-width:1.8px;"/><path d="M315.588,304.528C318.99,305.837 321.615,308.119 324.926,309.527C329.757,311.58 334.801,312.715 338.814,315.98C339.596,316.616 342.265,318.376 341.976,319.801C341.326,323.011 337.385,325.794 334.27,326.478C322.498,329.064 319.265,318.746 311.121,314.957" style="fill:url(#_Linear47);stroke:#005f7a;stroke-width:1.8px;"/><path d="M261.045,290.649C255.374,291.147 249.376,292.853 244.429,295.776C239.12,298.913 234.537,303.672 227.816,302.627C226.721,302.457 225.651,302.151 224.62,301.745C220.245,300.024 211.663,294.594 217.313,289.46C223.463,283.872 231.307,286.285 238.648,285.01C247.75,283.428 254.014,277.493 258.915,270.018" style="fill:url(#_Linear48);stroke:#005f7a;stroke-width:1.8px;"/><path d="M181.536,245.267C182.681,233.095 175.439,221.17 169.465,211.068C166.781,206.53 160.393,199.719 162.552,193.911C164.233,189.39 168.541,188.566 172.31,191.502C176.902,195.08 178.787,200.576 180.557,205.911C184.69,218.365 188.471,232.615 202.422,237.695" style="fill:url(#_Linear49);stroke:#005f7a;stroke-width:1.8px;"/><path d="M202.411,313.715C198.016,306.417 192.647,303.434 184.594,301.678C181.083,300.912 172.446,300.765 170.654,296.604C169.885,294.819 171.867,293.042 173.261,292.25C177.209,290.005 182.029,290.141 186.188,291.675C192.075,293.846 197.938,297.786 204.495,295.933" style="fill:url(#_Linear50);stroke:#005f7a;stroke-width:1.8px;"/><path d="M145.773,286.798C141.603,280.381 135.922,278.507 128.725,277.877C124.092,277.472 117.625,278.256 114.631,273.728C112.138,269.957 112.75,263.689 117.979,262.416C121.575,261.541 125.263,262.755 128.659,263.879C132.663,265.204 136.783,266.205 140.864,267.263C146.939,268.838 153.281,270.358 159.578,270.572C162.138,270.659 165.342,270.836 167.708,269.575" style="fill:url(#_Linear51);stroke:#005f7a;stroke-width:1.8px;"/><path d="M111.63,267.201C106.66,262.803 100.662,258.076 94.473,255.566C89.226,253.437 83.591,252.605 78.281,250.66C74.497,249.274 70.902,246.952 67.567,244.73C64.838,242.911 57.965,238.642 61.439,234.903C62.222,234.06 63.156,233.406 64.129,232.805C65.352,232.049 66.708,231.584 68.168,231.687C75.507,232.21 80.044,239.327 85.607,243.203C93.472,248.682 103.999,249.854 112.911,246.496" style="fill:url(#_Linear52);stroke:#005f7a;stroke-width:1.8px;"/><path d="M125.656,349.734C120.086,346.071 112.102,344.065 105.482,345.174C101.229,345.886 97.073,347.992 92.712,347.937C91.499,347.922 90.308,347.677 89.161,347.288C84.093,345.567 74.473,338.327 80.872,332.837C85.924,328.503 95.081,331.383 100.935,331.136C112.433,330.651 123.191,327.843 132.623,321.032" style="fill:url(#_Linear53);stroke:#005f7a;stroke-width:1.8px;"/></g></g></g><defs><radialGradient id="_Radial1" cx="0" cy="0" r="1" gradientUnits="userSpaceOnUse" gradientTransform="matrix(144.155,4.86659,-4.15474,123.069,343.931,265.662)"><stop offset="0" style="stop-color:#772d75;stop-opacity:1"/><stop offset="0.66" style="stop-color:#772d75;stop-opacity:0.86"/><stop offset="0.84" style="stop-color:#772d75;stop-opacity:0.47"/><stop offset="1" style="stop-color:#772d75;stop-opacity:0"/></radialGradient><radialGradient id="_Radial2" cx="0" cy="0" r="1" gradientUnits="userSpaceOnUse" gradientTransform="matrix(-94.9674,314.796,-314.796,-94.9674,299.007,306.465)"><stop offset="0" style="stop-color:#86ddff;stop-opacity:0"/><stop offset="0.8" style="stop-color:#86ddff;stop-opacity:0"/><stop offset="1" style="stop-color:#86dbff;stop-opacity:1"/></radialGradient><radialGradient id="_Radial3" cx="0" cy="0" r="1" gradientUnits="userSpaceOnUse" gradientTransform="matrix(197.857,313.69,-307.484,204.616,239.808,201.376)"><stop offset="0" style="stop-color:#fff;stop-opacity:0.5"/><stop offset="0.17" style="stop-color:#d2dfe5;stop-opacity:0.37"/><stop offset="0.35" style="stop-color:#4e8198;stop-opacity:0"/><stop offset="0.78" style="stop-color:#4e8098;stop-opacity:0.7"/><stop offset="1" style="stop-color:#4e8098;stop-opacity:0.3"/></radialGradient><linearGradient id="_Linear4" x1="0" y1="0" x2="1" y2="0" gradientUnits="userSpaceOnUse" gradientTransform="matrix(26.1967,-113.184,113.184,26.1967,184.154,585.16)"><stop offset="0" style="stop-color:#86dbff;stop-opacity:1"/><stop offset="0.34" style="stop-color:#5c78a9;stop-opacity:1"/><stop offset="0.92" style="stop-color:#5c78a9;stop-opacity:1"/><stop offset="1" style="stop-color:#5677b4;stop-opacity:0"/></linearGradient><linearGradient id="_Linear5" x1="0" y1="0" x2="1" y2="0" gradientUnits="userSpaceOnUse" gradientTransform="matrix(-7.88803,-78.8527,78.8527,-7.88803,256.691,570.142)"><stop offset="0" style="stop-color:#86dbff;stop-opacity:1"/><stop offset="0.6" style="stop-color:#5c78a9;stop-opacity:1"/><stop offset="0.88" style="stop-color:#5c78a9;stop-opacity:1"/><stop offset="1" style="stop-color:#5677b4;stop-opacity:0"/></linearGradient><linearGradient id="_Linear6" x1="0" y1="0" x2="1" y2="0" gradientUnits="userSpaceOnUse" gradientTransform="matrix(-12.3281,-38.7028,38.7028,-12.3281,354.382,536.619)"><stop offset="0" style="stop-color:#86dbff;stop-opacity:1"/><stop offset="0.6" style="stop-color:#5c78a9;stop-opacity:1"/><stop offset="0.88" style="stop-color:#5c78a9;stop-opacity:1"/><stop offset="1" style="stop-color:#5677b4;stop-opacity:0"/></linearGradient><linearGradient id="_Linear7" x1="0" y1="0" x2="1" y2="0" gradientUnits="userSpaceOnUse" gradientTransform="matrix(-20.3234,-30.8426,30.8426,-20.3234,412.109,509.1)"><stop offset="0" style="stop-color:#86dbff;stop-opacity:1"/><stop offset="0.6" style="stop-color:#5c78a9;stop-opacity:1"/><stop offset="0.88" style="stop-color:#5c78a9;stop-opacity:1"/><stop offset="1" style="stop-color:#5677b4;stop-opacity:0"/></linearGradient><linearGradient id="_Linear8" x1="0" y1="0" x2="1" y2="0" gradientUnits="userSpaceOnUse" gradientTransform="matrix(-63.683,-49.2219,49.2219,-63.683,499.079,477.887)"><stop offset="0" style="stop-color:#86dbff;stop-opacity:1"/><stop offset="0.6" style="stop-color:#5c78a9;stop-opacity:1"/><stop offset="0.88" style="stop-color:#5c78a9;stop-opacity:1"/><stop offset="1" style="stop-color:#5677b4;stop-opacity:0"/></linearGradient><linearGradient id="_Linear9" x1="0" y1="0" x2="1" y2="0" gradientUnits="userSpaceOnUse" gradientTransform="matrix(-75.5428,-14.8821,14.8821,-75.5428,575.896,371.45)"><stop offset="0" style="stop-color:#86dbff;stop-opacity:1"/><stop offset="0.6" style="stop-color:#5c78a9;stop-opacity:1"/><stop offset="0.88" style="stop-color:#5c78a9;stop-opacity:1"/><stop offset="1" style="stop-color:#5677b4;stop-opacity:0"/></linearGradient><linearGradient id="_Linear10" x1="0" y1="0" x2="1" y2="0" gradientUnits="userSpaceOnUse" gradientTransform="matrix(-61.4709,-9.47869,9.47869,-61.4709,553.518,321.376)"><stop offset="0" style="stop-color:#86dbff;stop-opacity:1"/><stop offset="0.6" style="stop-color:#5c78a9;stop-opacity:1"/><stop offset="0.88" style="stop-color:#5c78a9;stop-opacity:1"/><stop offset="1" style="stop-color:#5677b4;stop-opacity:0"/></linearGradient><linearGradient id="_Linear11" x1="0" y1="0" x2="1" y2="0" gradientUnits="userSpaceOnUse" gradientTransform="matrix(-44.4289,-1.16516,1.16516,-44.4289,538.018,263.981)"><stop offset="0" style="stop-color:#86dbff;stop-opacity:1"/><stop offset="0.6" style="stop-color:#5c78a9;stop-opacity:1"/><stop offset="0.88" style="stop-color:#5c78a9;stop-opacity:1"/><stop offset="1" style="stop-color:#5677b4;stop-opacity:0"/></linearGradient><linearGradient id="_Linear12" x1="0" y1="0" x2="1" y2="0" gradientUnits="userSpaceOnUse" gradientTransform="matrix(-76.1224,9.54675,-9.54675,-76.1224,560.448,217.036)"><stop offset="0" style="stop-color:#86dbff;stop-opacity:1"/><stop offset="0.6" style="stop-color:#5c78a9;stop-opacity:1"/><stop offset="0.88" style="stop-color:#5c78a9;stop-opacity:1"/><stop offset="1" style="stop-color:#5677b4;stop-opacity:0"/></linearGradient><linearGradient id="_Linear13" x1="0" y1="0" x2="1" y2="0" gradientUnits="userSpaceOnUse" gradientTransform="matrix(-86.0186,42.5524,-42.5524,-86.0186,556.686,158.185)"><stop offset="0" style="stop-color:#86dbff;stop-opacity:1"/><stop offset="0.36" style="stop-color:#5c78a9;stop-opacity:1"/><stop offset="0.88" style="stop-color:#5c78a9;stop-opacity:1"/><stop offset="1" style="stop-color:#5677b4;stop-opacity:0"/></linearGradient><linearGradient id="_Linear14" x1="0" y1="0" x2="1" y2="0" gradientUnits="userSpaceOnUse" gradientTransform="matrix(-31.0569,48.0854,-48.0854,-31.0569,482.133,117.087)"><stop offset="0" style="stop-color:#86dbff;stop-opacity:1"/><stop offset="0.6" style="stop-color:#5c78a9;stop-opacity:1"/><stop offset="0.88" style="stop-color:#5c78a9;stop-opacity:1"/><stop offset="1" style="stop-color:#5677b4;stop-opacity:0"/></linearGradient><linearGradient id="_Linear15" x1="0" y1="0" x2="1" y2="0" gradientUnits="userSpaceOnUse" gradientTransform="matrix(-24.1754,67.9857,-67.9857,-24.1754,442.958,80.5801)"><stop offset="0" style="stop-color:#86dbff;stop-opacity:1"/><stop offset="0.6" style="stop-color:#5c78a9;stop-opacity:1"/><stop offset="0.88" style="stop-color:#5c78a9;stop-opacity:1"/><stop offset="1" style="stop-color:#5677b4;stop-opacity:0"/></linearGradient><linearGradient id="_Linear16" x1="0" y1="0" x2="1" y2="0" gradientUnits="userSpaceOnUse" gradientTransform="matrix(-4.77551,22.0339,-22.0339,-4.77551,385.249,89.726)"><stop offset="0" style="stop-color:#86dbff;stop-opacity:1"/><stop offset="0.6" style="stop-color:#5c78a9;stop-opacity:1"/><stop offset="0.88" style="stop-color:#5c78a9;stop-opacity:1"/><stop offset="1" style="stop-color:#5677b4;stop-opacity:0"/></linearGradient><linearGradient id="_Linear17" x1="0" y1="0" x2="1" y2="0" gradientUnits="userSpaceOnUse" gradientTransform="matrix(-2.16811,50.588,-50.588,-2.16811,351.658,56.3007)"><stop offset="0" style="stop-color:#86dbff;stop-opacity:1"/><stop offset="0.6" style="stop-color:#5c78a9;stop-opacity:1"/><stop offset="0.88" style="stop-color:#5c78a9;stop-opacity:1"/><stop offset="1" style="stop-color:#5677b4;stop-opacity:0"/></linearGradient><linearGradient id="_Linear18" x1="0" y1="0" x2="1" y2="0" gradientUnits="userSpaceOnUse" gradientTransform="matrix(-7.65515,48.575,-48.575,-7.65515,267.336,49.9467)"><stop offset="0" style="stop-color:#86dbff;stop-opacity:1"/><stop offset="0.6" style="stop-color:#5c78a9;stop-opacity:1"/><stop offset="0.88" style="stop-color:#5c78a9;stop-opacity:1"/><stop offset="1" style="stop-color:#5677b4;stop-opacity:0"/></linearGradient><linearGradient id="_Linear19" x1="0" y1="0" x2="1" y2="0" gradientUnits="userSpaceOnUse" gradientTransform="matrix(6.43872,49.8442,-49.8442,6.43872,204.879,56.847)"><stop offset="0" style="stop-color:#86dbff;stop-opacity:1"/><stop offset="0.6" style="stop-color:#5c78a9;stop-opacity:1"/><stop offset="0.88" style="stop-color:#5c78a9;stop-opacity:1"/><stop offset="1" style="stop-color:#5677b4;stop-opacity:0"/></linearGradient><linearGradient id="_Linear20" x1="0" y1="0" x2="1" y2="0" gradientUnits="userSpaceOnUse" gradientTransform="matrix(45.0957,19.7137,-19.7137,45.0957,93.6896,148.564)"><stop offset="0" style="stop-color:#86dbff;stop-opacity:1"/><stop offset="0.6" style="stop-color:#5c78a9;stop-opacity:1"/><stop offset="0.88" style="stop-color:#5c78a9;stop-opacity:1"/><stop offset="1" style="stop-color:#5677b4;stop-opacity:0"/></linearGradient><linearGradient id="_Linear21" x1="0" y1="0" x2="1" y2="0" gradientUnits="userSpaceOnUse" gradientTransform="matrix(35.9585,45.8576,-45.8576,35.9585,76.049,168.757)"><stop offset="0" style="stop-color:#86dbff;stop-opacity:1"/><stop offset="0.6" style="stop-color:#5c78a9;stop-opacity:1"/><stop offset="0.88" style="stop-color:#5c78a9;stop-opacity:1"/><stop offset="1" style="stop-color:#5677b4;stop-opacity:0"/></linearGradient><linearGradient id="_Linear22" x1="0" y1="0" x2="1" y2="0" gradientUnits="userSpaceOnUse" gradientTransform="matrix(60.8233,3.26179,-3.26179,60.8233,15.2912,265.784)"><stop offset="0" style="stop-color:#86dbff;stop-opacity:1"/><stop offset="0.6" style="stop-color:#5c78a9;stop-opacity:1"/><stop offset="0.88" style="stop-color:#5c78a9;stop-opacity:1"/><stop offset="1" style="stop-color:#5677b4;stop-opacity:0"/></linearGradient><linearGradient id="_Linear23" x1="0" y1="0" x2="1" y2="0" gradientUnits="userSpaceOnUse" gradientTransform="matrix(52.2331,-8.21608,8.21608,52.2331,42.0552,301.289)"><stop offset="0" style="stop-color:#86dbff;stop-opacity:1"/><stop offset="0.6" style="stop-color:#5c78a9;stop-opacity:1"/><stop offset="0.88" style="stop-color:#5c78a9;stop-opacity:1"/><stop offset="1" style="stop-color:#5677b4;stop-opacity:0"/></linearGradient><linearGradient id="_Linear24" x1="0" y1="0" x2="1" y2="0" gradientUnits="userSpaceOnUse" gradientTransform="matrix(46.9273,-31.7764,31.7764,46.9273,78.1779,419.657)"><stop offset="0" style="stop-color:#86dbff;stop-opacity:1"/><stop offset="0.6" style="stop-color:#5c78a9;stop-opacity:1"/><stop offset="0.88" style="stop-color:#5c78a9;stop-opacity:1"/><stop offset="1" style="stop-color:#5677b4;stop-opacity:0"/></linearGradient><linearGradient id="_Linear25" x1="0" y1="0" x2="1" y2="0" gradientUnits="userSpaceOnUse" gradientTransform="matrix(15.4351,-34.4501,34.4501,15.4351,109.205,485.682)"><stop offset="0" style="stop-color:#86dbff;stop-opacity:1"/><stop offset="0.6" style="stop-color:#5c78a9;stop-opacity:1"/><stop offset="0.88" style="stop-color:#5c78a9;stop-opacity:1"/><stop offset="1" style="stop-color:#5677b4;stop-opacity:0"/></linearGradient><linearGradient id="_Linear26" x1="0" y1="0" x2="1" y2="0" gradientUnits="userSpaceOnUse" gradientTransform="matrix(-25.7421,-49.4986,49.4986,-25.7421,363.778,503.215)"><stop offset="0" style="stop-color:#86dbff;stop-opacity:1"/><stop offset="0.6" style="stop-color:#5c78a9;stop-opacity:1"/><stop offset="0.88" style="stop-color:#5c78a9;stop-opacity:1"/><stop offset="1" style="stop-color:#5677b4;stop-opacity:0"/></linearGradient><linearGradient id="_Linear27" x1="0" y1="0" x2="1" y2="0" gradientUnits="userSpaceOnUse" gradientTransform="matrix(4.66406,-54.043,54.043,4.66406,270.474,514.086)"><stop offset="0" style="stop-color:#86dbff;stop-opacity:1"/><stop offset="0.27" style="stop-color:#658dbb;stop-opacity:1"/><stop offset="0.6" style="stop-color:#5c78a9;stop-opacity:1"/><stop offset="0.88" style="stop-color:#5c78a9;stop-opacity:1"/><stop offset="1" style="stop-color:#5677b4;stop-opacity:0"/></linearGradient><linearGradient id="_Linear28" x1="0" y1="0" x2="1" y2="0" gradientUnits="userSpaceOnUse" gradientTransform="matrix(28.8556,32.5204,-32.5204,28.8556,113.07,178.219)"><stop offset="0" style="stop-color:#86dbff;stop-opacity:1"/><stop offset="0.63" style="stop-color:#5c78a9;stop-opacity:1"/><stop offset="1" style="stop-color:#5677b4;stop-opacity:0"/></linearGradient><linearGradient id="_Linear29" x1="0" y1="0" x2="1" y2="0" gradientUnits="userSpaceOnUse" gradientTransform="matrix(5.77118,38.4025,-38.4025,5.77118,179.314,146.318)"><stop offset="0" style="stop-color:#86dbff;stop-opacity:1"/><stop offset="0.63" style="stop-color:#5c78a9;stop-opacity:1"/><stop offset="1" style="stop-color:#5677b4;stop-opacity:0"/></linearGradient><linearGradient id="_Linear30" x1="0" y1="0" x2="1" y2="0" gradientUnits="userSpaceOnUse" gradientTransform="matrix(19.8919,40.8917,-40.8917,19.8919,209.985,115.836)"><stop offset="0" style="stop-color:#86dbff;stop-opacity:1"/><stop offset="0.63" style="stop-color:#5c78a9;stop-opacity:1"/><stop offset="1" style="stop-color:#5677b4;stop-opacity:0"/></linearGradient><linearGradient id="_Linear31" x1="0" y1="0" x2="1" y2="0" gradientUnits="userSpaceOnUse" gradientTransform="matrix(7.81161,51.7098,-51.7098,7.81161,315.697,94.5677)"><stop offset="0" style="stop-color:#86dbff;stop-opacity:1"/><stop offset="0.63" style="stop-color:#5c78a9;stop-opacity:1"/><stop offset="1" style="stop-color:#5677b4;stop-opacity:0"/></linearGradient><linearGradient id="_Linear32" x1="0" y1="0" x2="1" y2="0" gradientUnits="userSpaceOnUse" gradientTransform="matrix(-32.8035,49.4634,-49.4634,-32.8035,392.8,158.495)"><stop offset="0" style="stop-color:#86dbff;stop-opacity:1"/><stop offset="0.63" style="stop-color:#5c78a9;stop-opacity:1"/><stop offset="1" style="stop-color:#5677b4;stop-opacity:0"/></linearGradient><linearGradient id="_Linear33" x1="0" y1="0" x2="1" y2="0" gradientUnits="userSpaceOnUse" gradientTransform="matrix(-55.3729,31.5214,-31.5214,-55.3729,459.271,180.719)"><stop offset="0" style="stop-color:#86dbff;stop-opacity:1"/><stop offset="0.63" style="stop-color:#5c78a9;stop-opacity:1"/><stop offset="1" style="stop-color:#5677b4;stop-opacity:0"/></linearGradient><linearGradient id="_Linear34" x1="0" y1="0" x2="1" y2="0" gradientUnits="userSpaceOnUse" gradientTransform="matrix(-49.8251,24.5994,-24.5994,-49.8251,432.167,261.546)"><stop offset="0" style="stop-color:#86dbff;stop-opacity:1"/><stop offset="0.63" style="stop-color:#5c78a9;stop-opacity:1"/><stop offset="1" style="stop-color:#5677b4;stop-opacity:0"/></linearGradient><linearGradient id="_Linear35" x1="0" y1="0" x2="1" y2="0" gradientUnits="userSpaceOnUse" gradientTransform="matrix(-43.7502,0.832362,-0.832362,-43.7502,476.845,285.476)"><stop offset="0" style="stop-color:#86dbff;stop-opacity:1"/><stop offset="0.63" style="stop-color:#5c78a9;stop-opacity:1"/><stop offset="1" style="stop-color:#5677b4;stop-opacity:0"/></linearGradient><linearGradient id="_Linear36" x1="0" y1="0" x2="1" y2="0" gradientUnits="userSpaceOnUse" gradientTransform="matrix(-62.5662,-9.35295,9.35295,-62.5662,480.694,371.34)"><stop offset="0" style="stop-color:#86dbff;stop-opacity:1"/><stop offset="0.63" style="stop-color:#5c78a9;stop-opacity:1"/><stop offset="1" style="stop-color:#5677b4;stop-opacity:0"/></linearGradient><linearGradient id="_Linear37" x1="0" y1="0" x2="1" y2="0" gradientUnits="userSpaceOnUse" gradientTransform="matrix(-37.0058,-49.6937,49.6937,-37.0058,384.975,429.179)"><stop offset="0" style="stop-color:#86dbff;stop-opacity:1"/><stop offset="0.63" style="stop-color:#5c78a9;stop-opacity:1"/><stop offset="1" style="stop-color:#5677b4;stop-opacity:0"/></linearGradient><linearGradient id="_Linear38" x1="0" y1="0" x2="1" y2="0" gradientUnits="userSpaceOnUse" gradientTransform="matrix(-12.7502,-66.9476,66.9476,-12.7502,309.4,475.478)"><stop offset="0" style="stop-color:#86dbff;stop-opacity:1"/><stop offset="0.63" style="stop-color:#5c78a9;stop-opacity:1"/><stop offset="1" style="stop-color:#5677b4;stop-opacity:0"/></linearGradient><linearGradient id="_Linear39" x1="0" y1="0" x2="1" y2="0" gradientUnits="userSpaceOnUse" gradientTransform="matrix(31.3708,-59.2856,59.2856,31.3708,218.253,462.617)"><stop offset="0" style="stop-color:#86dbff;stop-opacity:1"/><stop offset="0.63" style="stop-color:#5c78a9;stop-opacity:1"/><stop offset="1" style="stop-color:#5677b4;stop-opacity:0"/></linearGradient><linearGradient id="_Linear40" x1="0" y1="0" x2="1" y2="0" gradientUnits="userSpaceOnUse" gradientTransform="matrix(40.1143,-59.3472,59.3472,40.1143,165.345,458.875)"><stop offset="0" style="stop-color:#86dbff;stop-opacity:1"/><stop offset="0.13" style="stop-color:#75b4dc;stop-opacity:1"/><stop offset="0.26" style="stop-color:#648bb9;stop-opacity:1"/><stop offset="0.63" style="stop-color:#5c78a9;stop-opacity:1"/><stop offset="1" style="stop-color:#5677b4;stop-opacity:0"/></linearGradient><linearGradient id="_Linear41" x1="0" y1="0" x2="1" y2="0" gradientUnits="userSpaceOnUse" gradientTransform="matrix(70.1213,0.0884281,-0.0884281,70.1213,129.43,365.947)"><stop offset="0" style="stop-color:#86dbff;stop-opacity:1"/><stop offset="0.29" style="stop-color:#658ebc;stop-opacity:1"/><stop offset="0.63" style="stop-color:#5c78a9;stop-opacity:1"/><stop offset="1" style="stop-color:#5677b4;stop-opacity:0"/></linearGradient><linearGradient id="_Linear42" x1="0" y1="0" x2="1" y2="0.0135722" gradientUnits="userSpaceOnUse" gradientTransform="matrix(15.8053,-20.4154,18.6632,14.8265,261.659,361.478)"><stop offset="0" style="stop-color:#86dbff;stop-opacity:1"/><stop offset="1" style="stop-color:#5677b4;stop-opacity:1"/></linearGradient><linearGradient id="_Linear43" x1="0" y1="0" x2="1" y2="0" gradientUnits="userSpaceOnUse" gradientTransform="matrix(1.57573,37.8867,-37.8867,1.57573,327.019,234.707)"><stop offset="0" style="stop-color:#86dbff;stop-opacity:1"/><stop offset="0.29" style="stop-color:#658ebc;stop-opacity:1"/><stop offset="0.63" style="stop-color:#5c78a9;stop-opacity:1"/><stop offset="1" style="stop-color:#5677b4;stop-opacity:0"/></linearGradient><linearGradient id="_Linear44" x1="0" y1="0" x2="1" y2="0" gradientUnits="userSpaceOnUse" gradientTransform="matrix(-34.4653,23.0946,-23.0946,-34.4653,321.493,199.441)"><stop offset="0" style="stop-color:#86dbff;stop-opacity:1"/><stop offset="0.13" style="stop-color:#75b4dd;stop-opacity:1"/><stop offset="0.27" style="stop-color:#648bba;stop-opacity:1"/><stop offset="0.63" style="stop-color:#5c78a9;stop-opacity:1"/><stop offset="1" style="stop-color:#5677b4;stop-opacity:0"/></linearGradient><linearGradient id="_Linear45" x1="0" y1="0" x2="1" y2="0" gradientUnits="userSpaceOnUse" gradientTransform="matrix(-18.2909,27.8026,-27.8026,-18.2909,282.577,147.075)"><stop offset="0" style="stop-color:#86dbff;stop-opacity:1"/><stop offset="0.63" style="stop-color:#5c78a9;stop-opacity:1"/><stop offset="1" style="stop-color:#5677b4;stop-opacity:0"/></linearGradient><linearGradient id="_Linear46" x1="0" y1="0" x2="1" y2="0" gradientUnits="userSpaceOnUse" gradientTransform="matrix(27.0846,37.2213,-37.2213,27.0846,223.537,195.214)"><stop offset="0" style="stop-color:#86dbff;stop-opacity:1"/><stop offset="0.63" style="stop-color:#5c78a9;stop-opacity:1"/><stop offset="1" style="stop-color:#5677b4;stop-opacity:0"/></linearGradient><linearGradient id="_Linear47" x1="0" y1="0" x2="1" y2="-0.047309" gradientUnits="userSpaceOnUse" gradientTransform="matrix(-7.7553,-13.0274,19.7177,-13.8462,335.444,326.273)"><stop offset="0" style="stop-color:#86dbff;stop-opacity:1"/><stop offset="1" style="stop-color:#5677b4;stop-opacity:1"/></linearGradient><linearGradient id="_Linear48" x1="0" y1="0" x2="1" y2="0" gradientUnits="userSpaceOnUse" gradientTransform="matrix(41.6279,-15.1445,15.1445,41.6279,217.957,295.629)"><stop offset="0" style="stop-color:#86dbff;stop-opacity:1"/><stop offset="0.63" style="stop-color:#5c78a9;stop-opacity:1"/><stop offset="1" style="stop-color:#5677b4;stop-opacity:0"/></linearGradient><linearGradient id="_Linear49" x1="0" y1="0" x2="1" y2="0" gradientUnits="userSpaceOnUse" gradientTransform="matrix(26.4603,47.7232,-47.7232,26.4603,166.48,190.164)"><stop offset="0" style="stop-color:#86dbff;stop-opacity:1"/><stop offset="0.63" style="stop-color:#5c78a9;stop-opacity:1"/><stop offset="1" style="stop-color:#5677b4;stop-opacity:0"/></linearGradient><linearGradient id="_Linear50" x1="0" y1="0" x2="1" y2="0" gradientUnits="userSpaceOnUse" gradientTransform="matrix(29.1165,6.45811,-6.45811,29.1165,172.944,295.133)"><stop offset="0" style="stop-color:#86dbff;stop-opacity:1"/><stop offset="0.63" style="stop-color:#5c78a9;stop-opacity:1"/><stop offset="1" style="stop-color:#5677b4;stop-opacity:0"/></linearGradient><linearGradient id="_Linear51" x1="0" y1="0" x2="1" y2="0" gradientUnits="userSpaceOnUse" gradientTransform="matrix(39.2307,12.722,-12.722,39.2307,114.756,267.898)"><stop offset="0" style="stop-color:#86dbff;stop-opacity:1"/><stop offset="0.63" style="stop-color:#5c78a9;stop-opacity:1"/><stop offset="1" style="stop-color:#5677b4;stop-opacity:0"/></linearGradient><linearGradient id="_Linear52" x1="0" y1="0" x2="1" y2="0" gradientUnits="userSpaceOnUse" gradientTransform="matrix(49.9884,20.6891,-20.6891,49.9884,62.716,235.527)"><stop offset="0" style="stop-color:#86dbff;stop-opacity:1"/><stop offset="0.63" style="stop-color:#5c78a9;stop-opacity:1"/><stop offset="1" style="stop-color:#5677b4;stop-opacity:0"/></linearGradient><linearGradient id="_Linear53" x1="0" y1="0" x2="1" y2="0" gradientUnits="userSpaceOnUse" gradientTransform="matrix(45.5891,-0.477625,0.477625,45.5891,80.6205,337.757)"><stop offset="0" style="stop-color:#86dbff;stop-opacity:1"/><stop offset="0.63" style="stop-color:#5c78a9;stop-opacity:1"/><stop offset="1" style="stop-color:#5677b4;stop-opacity:0"/></linearGradient></defs></svg>